<svg width="18" height="18" viewBox="0 0 18 18" fill="none" xmlns="http://www.w3.org/2000/svg">
<path d="M7.45 9.975L8.75 11.275C8.93333 11.4583 9.16667 11.55 9.45 11.55C9.73333 11.55 9.96667 11.4583 10.15 11.275L13 8.425V9.025C13 9.30833 13.096 9.54167 13.288 9.725C13.48 9.90833 13.7173 10 14 10C14.2827 10 14.5203 9.90433 14.713 9.713C14.9057 9.52167 15.0013 9.284 15 9V6C15 5.71667 14.904 5.47933 14.712 5.288C14.52 5.09667 14.2827 5.00067 14 5H10.975C10.6917 5 10.4583 5.096 10.275 5.288C10.0917 5.48 10 5.71733 10 6C10 6.28267 10.096 6.52033 10.288 6.713C10.48 6.90567 10.7173 7.00133 11 7H11.575L9.45 9.15L8.15 7.85C7.96667 7.65 7.73333 7.55 7.45 7.55C7.16667 7.55 6.93333 7.65 6.75 7.85L3.7 10.9C3.5 11.0833 3.4 11.3167 3.4 11.6C3.4 11.8833 3.5 12.1167 3.7 12.3C3.88333 12.5 4.11667 12.6 4.4 12.6C4.68333 12.6 4.91667 12.5 5.1 12.3L7.45 9.975ZM2 18C1.45 18 0.979333 17.8043 0.588 17.413C0.196667 17.0217 0.000666667 16.5507 0 16V2C0 1.45 0.196 0.979333 0.588 0.588C0.98 0.196667 1.45067 0.000666667 2 0H16C16.55 0 17.021 0.196 17.413 0.588C17.805 0.98 18.0007 1.45067 18 2V16C18 16.55 17.8043 17.021 17.413 17.413C17.0217 17.805 16.5507 18.0007 16 18H2ZM2 16H16V2H2V16Z" fill="#424955"/>
</svg>
