<svg width="36" height="36" viewBox="0 0 36 36" fill="none" xmlns="http://www.w3.org/2000/svg">
<rect width="36" height="36" rx="6" fill="#188357"/>
<g clip-path="url(#clip0_9880_4066)">
<path d="M13.8333 11.333C12 11.333 10.5 12.833 10.5 14.6663C10.5 16.4997 12 17.9997 13.8333 17.9997C15.6667 17.9997 17.1667 16.4997 17.1667 14.6663C17.1667 12.833 15.6667 11.333 13.8333 11.333ZM13.8333 16.333C12.9167 16.333 12.1667 15.583 12.1667 14.6663C12.1667 13.7497 12.9167 12.9997 13.8333 12.9997C14.75 12.9997 15.5 13.7497 15.5 14.6663C15.5 15.583 14.75 16.333 13.8333 16.333ZM8 22.9997C8 21.1663 10.5833 19.6663 13.8333 19.6663C15.0833 19.6663 16.25 19.9163 17.1667 20.2497V22.1663C16.5 21.7497 15.3333 21.333 13.8333 21.333C11.1667 21.333 9.66667 22.4997 9.66667 22.9997H17.1667V24.6663H8V22.9997ZM26.3333 11.333H20.5C19.5833 11.333 18.8333 12.083 18.8333 12.9997V22.9997C18.8333 23.9163 19.5833 24.6663 20.5 24.6663H26.3333C27.25 24.6663 28 23.9163 28 22.9997V12.9997C28 12.083 27.25 11.333 26.3333 11.333ZM26.3333 22.9997H20.5V12.9997H26.3333V22.9997Z" fill="white"/>
</g>
<defs>
<clipPath id="clip0_9880_4066">
<rect width="20" height="20" fill="white" transform="translate(8 8)"/>
</clipPath>
</defs>
</svg>
