<svg width="36" height="36" viewBox="0 0 36 36" fill="none" xmlns="http://www.w3.org/2000/svg">
<g clip-path="url(#clip0_9880_4059)">
<rect width="36" height="36" rx="6" fill="#00BDD6"/>
<g clip-path="url(#clip1_9880_4059)">
<path d="M28 20.1663C28 20.6663 27 20.9997 25.8333 21.1663C25.0833 19.7497 23.5833 18.6663 21.8333 17.9163C22 17.6663 22.1667 17.4997 22.3333 17.2497H23C25.5833 17.1663 28 18.7497 28 20.1663ZM13.6667 17.1663H13C10.4167 17.1663 8 18.7497 8 20.1663C8 20.6663 9 20.9997 10.1667 21.1663C10.9167 19.7497 12.4167 18.6663 14.1667 17.9163L13.6667 17.1663ZM18 17.9997C19.8333 17.9997 21.3333 16.4997 21.3333 14.6663C21.3333 12.833 19.8333 11.333 18 11.333C16.1667 11.333 14.6667 12.833 14.6667 14.6663C14.6667 16.4997 16.1667 17.9997 18 17.9997ZM18 18.833C14.5833 18.833 11.3333 20.9997 11.3333 22.9997C11.3333 24.6663 18 24.6663 18 24.6663C18 24.6663 24.6667 24.6663 24.6667 22.9997C24.6667 20.9997 21.4167 18.833 18 18.833ZM22.75 16.333H23C24.4167 16.333 25.5 15.2497 25.5 13.833C25.5 12.4163 24.4167 11.333 23 11.333C22.5833 11.333 22.25 11.4163 21.9167 11.583C22.5833 12.4163 23 13.4997 23 14.6663C23 15.2497 22.9167 15.833 22.75 16.333ZM13 16.333H13.25C13.0833 15.833 13 15.2497 13 14.6663C13 13.4997 13.4167 12.4163 14.0833 11.583C13.75 11.4163 13.4167 11.333 13 11.333C11.5833 11.333 10.5 12.4163 10.5 13.833C10.5 15.2497 11.5833 16.333 13 16.333Z" fill="white"/>
</g>
</g>
<defs>
<clipPath id="clip0_9880_4059">
<rect width="36" height="36" rx="6" fill="white"/>
</clipPath>
<clipPath id="clip1_9880_4059">
<rect width="20" height="20" fill="white" transform="translate(8 8)"/>
</clipPath>
</defs>
</svg>
