<svg width="36" height="36" viewBox="0 0 36 36" fill="none" xmlns="http://www.w3.org/2000/svg">
<rect width="36" height="36" rx="6" fill="#8353E2"/>
<path d="M12.286 13.7146C13.075 13.7146 13.7146 13.075 13.7146 12.286C13.7146 11.497 13.075 10.8574 12.286 10.8574C11.497 10.8574 10.8574 11.497 10.8574 12.286C10.8574 13.075 11.497 13.7146 12.286 13.7146Z" stroke="white" stroke-width="1.71429" stroke-miterlimit="10" stroke-linecap="square"/>
<path d="M12.286 19.4284C13.075 19.4284 13.7146 18.7888 13.7146 17.9999C13.7146 17.2109 13.075 16.5713 12.286 16.5713C11.497 16.5713 10.8574 17.2109 10.8574 17.9999C10.8574 18.7888 11.497 19.4284 12.286 19.4284Z" stroke="white" stroke-width="1.71429" stroke-miterlimit="10" stroke-linecap="square"/>
<path d="M12.286 25.1433C13.075 25.1433 13.7146 24.5037 13.7146 23.7147C13.7146 22.9257 13.075 22.2861 12.286 22.2861C11.497 22.2861 10.8574 22.9257 10.8574 23.7147C10.8574 24.5037 11.497 25.1433 12.286 25.1433Z" stroke="white" stroke-width="1.71429" stroke-miterlimit="10" stroke-linecap="square"/>
<path d="M16.5713 12.2861L25.1427 12.2861" stroke="white" stroke-width="1.71429" stroke-miterlimit="10" stroke-linecap="square"/>
<path d="M16.5713 18L25.1427 18" stroke="white" stroke-width="1.71429" stroke-miterlimit="10" stroke-linecap="square"/>
<path d="M16.5713 23.7139L25.1427 23.7139" stroke="white" stroke-width="1.71429" stroke-miterlimit="10" stroke-linecap="square"/>
</svg>
