<svg width="16" height="16" viewBox="0 0 16 16" fill="none" xmlns="http://www.w3.org/2000/svg">
<path fill-rule="evenodd" clip-rule="evenodd" d="M10.4708 8.47124C10.5958 8.34622 10.666 8.17668 10.666 7.9999C10.666 7.82313 10.5958 7.65359 10.4708 7.52857L6.69949 3.75724C6.63799 3.69356 6.56443 3.64277 6.48309 3.60784C6.40176 3.5729 6.31428 3.55451 6.22576 3.55374C6.13724 3.55297 6.04945 3.56983 5.96752 3.60336C5.88559 3.63688 5.81116 3.68638 5.74856 3.74897C5.68597 3.81157 5.63646 3.886 5.60294 3.96793C5.56942 4.04986 5.55256 4.13765 5.55332 4.22617C5.55409 4.31469 5.57248 4.40217 5.60742 4.48351C5.64236 4.56484 5.69315 4.63841 5.75682 4.6999L9.05683 7.9999L5.75682 11.2999C5.63539 11.4256 5.56819 11.594 5.56971 11.7688C5.57123 11.9436 5.64134 12.1108 5.76495 12.2344C5.88855 12.3581 6.05576 12.4282 6.23056 12.4297C6.40536 12.4312 6.57376 12.364 6.69949 12.2426L10.4708 8.47124Z" fill="#424955"/>
</svg>
