<svg width="36" height="36" viewBox="0 0 36 36" fill="none" xmlns="http://www.w3.org/2000/svg">
<rect width="36" height="36" rx="6" fill="#25A338"/>
<path d="M11.7493 14.6663V18.4163M24.2493 14.6663V18.4163M9.66602 10.083H26.3327V13.4163L25.7502 13.7663C25.2969 14.0383 24.7782 14.182 24.2496 14.182C23.7209 14.182 23.2022 14.0383 22.7489 13.7663L22.166 13.4163L21.5835 13.7663C21.1302 14.0383 20.6115 14.182 20.0829 14.182C19.5543 14.182 19.0356 14.0383 18.5823 13.7663L17.9993 13.4163L17.4168 13.7663C16.9636 14.0383 16.4449 14.182 15.9162 14.182C15.3876 14.182 14.8689 14.0383 14.4156 13.7663L13.8327 13.4163L13.2498 13.7663C12.7965 14.0382 12.2779 14.1819 11.7493 14.1819C11.2208 14.1819 10.7022 14.0382 10.2489 13.7663L9.66602 13.4163V10.083ZM10.4993 18.4163H25.4993V25.9163H10.4993V18.4163Z" stroke="white" stroke-width="1.5" stroke-linecap="round" stroke-linejoin="round"/>
</svg>
