<svg width="36" height="36" viewBox="0 0 36 36" fill="none" xmlns="http://www.w3.org/2000/svg">
<rect width="36" height="36" rx="6" fill="#EA4335"/>
<g clip-path="url(#clip0_10691_325)">
<path fill-rule="evenodd" clip-rule="evenodd" d="M8.5046 9.00002C8.43855 8.99942 8.37304 9.0119 8.31185 9.03675C8.25065 9.06161 8.19499 9.09834 8.14807 9.14483C8.10115 9.19132 8.06391 9.24665 8.0385 9.30761C8.01308 9.36858 8 9.43397 8 9.50002V23.558C8.00002 23.6533 8.02726 23.7466 8.07854 23.827C8.12981 23.9073 8.20297 23.9713 8.2894 24.0114L14.6226 26.9534C14.69 26.9848 14.7636 27.0007 14.838 27C14.9093 26.9995 14.9797 26.9836 15.0444 26.9536L17.6564 25.7398C17.7002 25.3304 17.7718 24.9236 17.8864 24.5304L15.1294 25.8114L15.0556 12.8902L20.7906 10.226L20.8214 15.5956C21.0082 15.446 21.2083 15.3138 21.4192 15.2006L21.3902 10.1552L27 12.761V18.515C27.001 18.5637 27.001 18.6124 27 18.661V22.2398C27.2934 22.4618 27.5586 22.7196 27.778 23.0172C27.858 23.1242 27.9312 23.2348 28 23.3476V12.4422C28 12.3469 27.9728 12.2535 27.9215 12.1732C27.8702 12.0928 27.7971 12.0288 27.7106 11.9886L21.3774 9.04662C21.3099 9.01523 21.2362 8.99931 21.1618 9.00002C21.0906 9.00065 21.0204 9.01647 20.9558 9.04642L14.8332 11.8906L8.7106 9.04662C8.64603 9.0166 8.5758 9.00071 8.5046 9.00002ZM9 10.2836L14.455 12.8176L14.5292 25.8076L9 23.2384V10.2836Z" fill="white"/>
<path d="M23.1984 15.5537C21.5414 15.5537 20.1984 16.8969 20.1984 18.5537C20.1984 20.2105 21.5414 21.5537 23.1984 21.5537C24.855 21.5537 26.1984 20.2105 26.1984 18.5537C26.1984 16.8969 24.855 15.5537 23.1984 15.5537ZM23.1984 21.9983C19.8844 21.9983 18.3984 23.4845 18.3984 26.7983V27.1983C18.4134 27.9863 18.7618 28.0095 19.4984 27.9983H26.8984C27.8374 27.9975 28.0048 27.9993 27.9984 27.1983V26.7983C27.9984 23.4845 26.512 21.9983 23.1984 21.9983Z" fill="white"/>
</g>
<defs>
<clipPath id="clip0_10691_325">
<rect width="20" height="20" fill="white" transform="translate(8 8)"/>
</clipPath>
</defs>
</svg>
