<svg width="36" height="36" viewBox="0 0 36 36" fill="none" xmlns="http://www.w3.org/2000/svg">
<rect width="36" height="36" rx="6" fill="#E3B602"/>
<path d="M15.7221 16.7656H11.245C10.8661 16.7656 10.5027 16.9161 10.2348 17.184C9.96692 17.452 9.81641 17.8153 9.81641 18.1942V22.6628M9.81641 22.6628H25.3978M9.81641 22.6628V26.9999M25.3978 22.6628V18.1942C25.3978 17.8153 25.2473 17.452 24.9794 17.184C24.7115 16.9161 24.3481 16.7656 23.9693 16.7656H19.495M25.3978 22.6628V26.9999" stroke="white" stroke-width="1.71429" stroke-linecap="round" stroke-linejoin="round"/>
<path d="M14.9564 19.714H20.2564M21.3421 14.9182L18.1136 18.1497C17.9796 18.2836 17.798 18.3588 17.6086 18.3588C17.4192 18.3588 17.2375 18.2836 17.1036 18.1497L12.8107 13.8568C12.6768 13.7229 12.6016 13.5412 12.6016 13.3518C12.6016 13.1624 12.6768 12.9808 12.8107 12.8468L16.0421 9.61538C16.1761 9.48148 16.3577 9.40625 16.5471 9.40625C16.7365 9.40625 16.9182 9.48148 17.0521 9.61538L21.3421 13.9082C21.476 14.0422 21.5513 14.2238 21.5513 14.4132C21.5513 14.6026 21.476 14.7843 21.3421 14.9182Z" stroke="white" stroke-width="1.71429" stroke-linecap="round" stroke-linejoin="round"/>
</svg>
