<svg width="37" height="36" viewBox="0 0 37 36" fill="none" xmlns="http://www.w3.org/2000/svg">
<rect x="0.181641" width="36" height="36" rx="6" fill="#CC5F12"/>
<path d="M14.6992 11.8139L17.1592 13.9456C17.2269 14.0042 17.2813 14.0768 17.3185 14.1583C17.3557 14.2398 17.375 14.3284 17.375 14.4181V20.9156H15.2917C15.1259 20.9156 14.9669 20.9814 14.8497 21.0986C14.7325 21.2158 14.6667 21.3748 14.6667 21.5406V24.2489H11.9583C11.9031 24.2489 11.8501 24.2269 11.811 24.1879C11.7719 24.1488 11.75 24.0958 11.75 24.0406V14.4181C11.75 14.3284 11.7693 14.2398 11.8065 14.1583C11.8437 14.0768 11.8981 14.0042 11.9658 13.9456L14.425 11.8139C14.4629 11.7809 14.5114 11.7628 14.5617 11.7628C14.6119 11.7628 14.6613 11.7809 14.6992 11.8139ZM17.3742 22.1656V24.2489H15.9167V22.1664L17.3742 22.1656ZM18.6242 22.1656H20.0825V24.2489H18.6242V22.1656ZM21.3333 24.2497V21.5414C21.3333 21.3756 21.2675 21.2167 21.1503 21.0994C21.0331 20.9822 20.8741 20.9164 20.7083 20.9164H18.625V14.4181C18.625 14.3284 18.6443 14.2398 18.6815 14.1583C18.7187 14.0768 18.7731 14.0042 18.8408 13.9456L21.3008 11.8139C21.3387 11.7809 21.3873 11.7628 21.4375 11.7628C21.4877 11.7628 21.5363 11.7809 21.5742 11.8139L24.0342 13.9456C24.1019 14.0042 24.1563 14.0768 24.1935 14.1583C24.2307 14.2398 24.25 14.3284 24.25 14.4181V24.0406C24.25 24.0958 24.2281 24.1488 24.189 24.1879C24.1499 24.2269 24.0969 24.2489 24.0417 24.2489L21.3333 24.2497ZM11.9583 25.4997H24.0417C24.4284 25.4997 24.7994 25.3461 25.0729 25.0726C25.3464 24.7991 25.5 24.4282 25.5 24.0414V14.4181C25.4999 14.1493 25.442 13.8837 25.3303 13.6393C25.2186 13.3949 25.0556 13.1773 24.8525 13.0014L22.3925 10.8689C22.1274 10.6392 21.7883 10.5127 21.4375 10.5127C21.0867 10.5127 20.7476 10.6392 20.4825 10.8689L18.0225 13.0006L18 13.0206L17.9775 12.9997L15.5175 10.8689C15.2524 10.6392 14.9133 10.5127 14.5625 10.5127C14.2117 10.5127 13.8726 10.6392 13.6075 10.8689L11.1475 13.0006C10.9444 13.1765 10.7814 13.394 10.6697 13.6385C10.558 13.8829 10.5001 14.1485 10.5 14.4172V24.0414C10.5 24.8472 11.1533 25.4997 11.9583 25.4997ZM15.3992 15.4997C15.3992 15.7207 15.3114 15.9327 15.1551 16.089C14.9988 16.2453 14.7868 16.3331 14.5658 16.3331C14.3448 16.3331 14.1329 16.2453 13.9766 16.089C13.8203 15.9327 13.7325 15.7207 13.7325 15.4997C13.7325 15.2787 13.8203 15.0667 13.9766 14.9105C14.1329 14.7542 14.3448 14.6664 14.5658 14.6664C14.7868 14.6664 14.9988 14.7542 15.1551 14.9105C15.3114 15.0667 15.3992 15.2787 15.3992 15.4997ZM14.5658 19.6639C14.7868 19.6639 14.9988 19.5761 15.1551 19.4198C15.3114 19.2635 15.3992 19.0516 15.3992 18.8306C15.3992 18.6095 15.3114 18.3976 15.1551 18.2413C14.9988 18.085 14.7868 17.9972 14.5658 17.9972C14.3448 17.9972 14.1329 18.085 13.9766 18.2413C13.8203 18.3976 13.7325 18.6095 13.7325 18.8306C13.7325 19.0516 13.8203 19.2635 13.9766 19.4198C14.1329 19.5761 14.3448 19.6639 14.5658 19.6639ZM21.4342 16.3331C21.2132 16.3331 21.0012 16.2453 20.8449 16.089C20.6886 15.9327 20.6008 15.7207 20.6008 15.4997C20.6008 15.2787 20.6886 15.0667 20.8449 14.9105C21.0012 14.7542 21.2132 14.6664 21.4342 14.6664C21.6552 14.6664 21.8671 14.7542 22.0234 14.9105C22.1797 15.0667 22.2675 15.2787 22.2675 15.4997C22.2675 15.7207 22.1797 15.9327 22.0234 16.089C21.8671 16.2453 21.6552 16.3331 21.4342 16.3331ZM20.6008 18.8306C20.6008 19.0516 20.6886 19.2635 20.8449 19.4198C21.0012 19.5761 21.2132 19.6639 21.4342 19.6639C21.6552 19.6639 21.8671 19.5761 22.0234 19.4198C22.1797 19.2635 22.2675 19.0516 22.2675 18.8306C22.2675 18.6095 22.1797 18.3976 22.0234 18.2413C21.8671 18.085 21.6552 17.9972 21.4342 17.9972C21.2132 17.9972 21.0012 18.085 20.8449 18.2413C20.6886 18.3976 20.6008 18.6095 20.6008 18.8306Z" fill="white"/>
</svg>
