<svg width="36" height="36" viewBox="0 0 36 36" fill="none" xmlns="http://www.w3.org/2000/svg">
<rect width="36" height="36" rx="6" fill="#25A338"/>
<g clip-path="url(#clip0_9503_5329)">
<path d="M18 10.5C17.3096 10.5 16.75 9.94036 16.75 9.25C16.75 8.55964 17.3096 8 18 8C18.6904 8 19.25 8.55964 19.25 9.25C19.25 9.94036 18.6904 10.5 18 10.5Z" fill="white"/>
<path d="M26.75 19.25C26.0596 19.25 25.5 18.6904 25.5 18C25.5 17.3096 26.0596 16.75 26.75 16.75C27.4404 16.75 28 17.3096 28 18C28 18.6904 27.4404 19.25 26.75 19.25Z" fill="white" fill-opacity="0.3"/>
<path d="M25.5 14.875C24.8096 14.875 24.25 14.3154 24.25 13.625C24.25 12.9346 24.8096 12.375 25.5 12.375C26.1904 12.375 26.75 12.9346 26.75 13.625C26.75 14.3154 26.1904 14.875 25.5 14.875Z" fill="white" fill-opacity="0.1"/>
<path d="M25.5 21.125C24.8096 21.125 24.25 21.6846 24.25 22.375C24.25 23.0654 24.8096 23.625 25.5 23.625C26.1904 23.625 26.75 23.0654 26.75 22.375C26.75 21.6846 26.1904 21.125 25.5 21.125Z" fill="white" fill-opacity="0.5"/>
<path d="M10.5 14.875C11.1904 14.875 11.75 14.3154 11.75 13.625C11.75 12.9346 11.1904 12.375 10.5 12.375C9.80964 12.375 9.25 12.9346 9.25 13.625C9.25 14.3154 9.80964 14.875 10.5 14.875Z" fill="white"/>
<path d="M10.5 21.125C11.1904 21.125 11.75 21.6846 11.75 22.375C11.75 23.0654 11.1904 23.625 10.5 23.625C9.80964 23.625 9.25 23.0654 9.25 22.375C9.25 21.6846 9.80964 21.125 10.5 21.125Z" fill="white"/>
<path d="M22.375 11.75C21.6846 11.75 21.125 11.1904 21.125 10.5C21.125 9.80964 21.6846 9.25 22.375 9.25C23.0654 9.25 23.625 9.80964 23.625 10.5C23.625 11.1904 23.0654 11.75 22.375 11.75Z" fill="white" fill-opacity="0.05"/>
<path d="M22.375 24.25C21.6846 24.25 21.125 24.8096 21.125 25.5C21.125 26.1904 21.6846 26.75 22.375 26.75C23.0654 26.75 23.625 26.1904 23.625 25.5C23.625 24.8096 23.0654 24.25 22.375 24.25Z" fill="white" fill-opacity="0.7"/>
<path d="M13.625 11.75C14.3154 11.75 14.875 11.1904 14.875 10.5C14.875 9.80964 14.3154 9.25 13.625 9.25C12.9346 9.25 12.375 9.80964 12.375 10.5C12.375 11.1904 12.9346 11.75 13.625 11.75Z" fill="white"/>
<path d="M13.625 24.25C14.3154 24.25 14.875 24.8096 14.875 25.5C14.875 26.1904 14.3154 26.75 13.625 26.75C12.9346 26.75 12.375 26.1904 12.375 25.5C12.375 24.8096 12.9346 24.25 13.625 24.25Z" fill="white"/>
<path d="M18 28C17.3096 28 16.75 27.4404 16.75 26.75C16.75 26.0596 17.3096 25.5 18 25.5C18.6904 25.5 19.25 26.0596 19.25 26.75C19.25 27.4404 18.6904 28 18 28Z" fill="white" fill-opacity="0.9"/>
<path d="M9.25 19.25C8.55964 19.25 8 18.6904 8 18C8 17.3096 8.55964 16.75 9.25 16.75C9.94036 16.75 10.5 17.3096 10.5 18C10.5 18.6904 9.94036 19.25 9.25 19.25Z" fill="white"/>
</g>
<defs>
<clipPath id="clip0_9503_5329">
<rect width="20" height="20" fill="white" transform="translate(8 8)"/>
</clipPath>
</defs>
</svg>
