<svg width="26" height="26" viewBox="0 0 26 26" fill="none" xmlns="http://www.w3.org/2000/svg">
<path d="M25.7992 13.0001C25.7988 10.5541 25.0976 8.15935 23.7785 6.09945C22.4594 4.03955 20.5777 2.40074 18.3561 1.37704C16.1346 0.35334 13.6663 -0.0123843 11.2433 0.323164C8.82039 0.658713 6.54433 1.68148 4.68461 3.27039C2.82488 4.8593 1.45937 6.94781 0.74973 9.28867C0.0400876 11.6295 0.0160336 14.1247 0.680415 16.4788C1.3448 18.8329 2.66979 20.9474 4.49854 22.5718C6.32729 24.1963 8.5832 25.2627 10.9992 25.6449L10.9992 16.7001H7.74962L7.74962 13.0001H10.9992L10.9992 10.1801C10.9992 6.97214 12.9104 5.20014 15.8336 5.20014C16.7936 5.21345 17.7514 5.29688 18.6992 5.44974L18.6992 8.60014L17.0848 8.60014C16.8097 8.5636 16.5299 8.58944 16.2662 8.67574C16.0024 8.76204 15.7614 8.90658 15.5611 9.09867C15.3608 9.29075 15.2063 9.52544 15.109 9.78536C15.0118 10.0453 14.9742 10.3237 14.9992 10.6001L14.9992 13.0001L18.5496 13.0001L17.9816 16.7001H14.9992L14.9992 25.6449C18.0103 25.1686 20.7524 23.6333 22.7323 21.3152C24.7122 18.9972 25.7997 16.0486 25.7992 13.0001Z" fill="#1878F1"/>
</svg>
