<svg width="34" height="34" viewBox="0 0 34 34" fill="none" xmlns="http://www.w3.org/2000/svg">
<g clip-path="url(#clip0_10713_305)">
<path d="M23.8423 7.14203C29.2863 10.921 30.6362 18.3987 26.8572 23.8426C23.0782 29.2866 15.6005 30.6365 10.1566 26.8575C8.65655 25.8163 7.4683 24.496 6.61129 23.0124C7.28837 24.04 8.15293 24.9309 9.15977 25.6385C13.6237 28.7372 16.771 25.5815 17.8217 24.0381C19.4181 21.6928 20.1677 18.1753 19.6457 14.4117L21.554 16.3098C21.9905 16.7419 22.6542 16.7205 23.0031 16.2249L23.1456 16.0196C23.5032 15.5045 23.3377 14.8467 22.883 14.3935L18.8054 10.3384C18.358 9.88173 17.7019 9.92904 17.3437 10.4449L14.1088 15.1052C13.7495 15.6227 13.6949 16.2872 14.1512 16.7415L14.3356 16.9231C14.7797 17.3409 15.3921 17.2547 15.7348 16.761L17.4227 14.3294L17.4559 14.5254C17.8781 17.3017 17.3125 19.9719 16.1241 21.6839C14.938 23.3925 12.5308 24.5578 10.1025 22.8722C5.06847 19.3778 5.42528 12.6296 7.1417 10.1569C10.9133 4.72365 18.3984 3.36306 23.8423 7.14203Z" fill="#1695F0"/>
</g>
<defs>
<clipPath id="clip0_10713_305">
<rect width="24" height="24" fill="white" transform="translate(0.298828 20.0146) rotate(-55.2331)"/>
</clipPath>
</defs>
</svg>
