<svg width="44" height="44" viewBox="0 0 44 44" fill="none" xmlns="http://www.w3.org/2000/svg">
<path opacity="0.5" d="M21.9993 40.3337C13.357 40.3337 9.03585 40.3337 6.35002 37.6478C3.66602 34.9657 3.66602 30.6427 3.66602 22.0003C3.66602 13.358 3.66602 9.03683 6.35002 6.35099C9.03768 3.66699 13.357 3.66699 21.9993 3.66699C30.6417 3.66699 34.9628 3.66699 37.6468 6.35099C40.3327 9.03866 40.3327 13.358 40.3327 22.0003C40.3327 30.6427 40.3327 34.9638 37.6468 37.6478C34.9647 40.3337 30.6417 40.3337 21.9993 40.3337Z" fill="#3C4CAC"/>
<path d="M34.375 14.667C34.375 15.0317 34.2301 15.3814 33.9723 15.6393C33.7144 15.8971 33.3647 16.042 33 16.042H11C10.6353 16.042 10.2856 15.8971 10.0277 15.6393C9.76987 15.3814 9.625 15.0317 9.625 14.667C9.625 14.3023 9.76987 13.9526 10.0277 13.6947C10.2856 13.4369 10.6353 13.292 11 13.292H33C33.3647 13.292 33.7144 13.4369 33.9723 13.6947C34.2301 13.9526 34.375 14.3023 34.375 14.667ZM34.375 22.0003C34.375 22.365 34.2301 22.7147 33.9723 22.9726C33.7144 23.2305 33.3647 23.3753 33 23.3753H11C10.6353 23.3753 10.2856 23.2305 10.0277 22.9726C9.76987 22.7147 9.625 22.365 9.625 22.0003C9.625 21.6357 9.76987 21.2859 10.0277 21.0281C10.2856 20.7702 10.6353 20.6253 11 20.6253H33C33.3647 20.6253 33.7144 20.7702 33.9723 21.0281C34.2301 21.2859 34.375 21.6357 34.375 22.0003ZM34.375 29.3337C34.375 29.6983 34.2301 30.0481 33.9723 30.3059C33.7144 30.5638 33.3647 30.7087 33 30.7087H11C10.6353 30.7087 10.2856 30.5638 10.0277 30.3059C9.76987 30.0481 9.625 29.6983 9.625 29.3337C9.625 28.969 9.76987 28.6192 10.0277 28.3614C10.2856 28.1035 10.6353 27.9587 11 27.9587H33C33.3647 27.9587 33.7144 28.1035 33.9723 28.3614C34.2301 28.6192 34.375 28.969 34.375 29.3337Z" fill="#3C4CAC"/>
</svg>
