<svg width="634" height="472" viewBox="0 0 634 472" fill="none" xmlns="http://www.w3.org/2000/svg">
<g filter="url(#filter0_dd_10580_292)">
<rect x="35" y="94" width="543" height="326" rx="8" fill="white" fill-opacity="0.95"/>
<rect x="35.5" y="94.5" width="542" height="325" rx="7.5" stroke="#F3F4F6"/>
<path d="M64.76 139.18C63.932 139.18 63.182 139.084 62.51 138.892C61.85 138.688 61.262 138.4 60.746 138.028C60.23 137.644 59.768 137.194 59.36 136.678L61.214 134.572C61.814 135.376 62.414 135.916 63.014 136.192C63.626 136.468 64.256 136.606 64.904 136.606C65.228 136.606 65.522 136.564 65.786 136.48C66.05 136.396 66.254 136.276 66.398 136.12C66.542 135.952 66.614 135.748 66.614 135.508C66.614 135.328 66.566 135.166 66.47 135.022C66.386 134.878 66.266 134.752 66.11 134.644C65.954 134.536 65.768 134.44 65.552 134.356C65.336 134.26 65.108 134.182 64.868 134.122C64.628 134.05 64.382 133.99 64.13 133.942C63.434 133.786 62.828 133.594 62.312 133.366C61.796 133.138 61.364 132.862 61.016 132.538C60.68 132.202 60.428 131.824 60.26 131.404C60.092 130.972 60.008 130.492 60.008 129.964C60.008 129.4 60.134 128.884 60.386 128.416C60.65 127.936 60.998 127.528 61.43 127.192C61.874 126.844 62.384 126.58 62.96 126.4C63.536 126.208 64.136 126.112 64.76 126.112C65.588 126.112 66.296 126.202 66.884 126.382C67.484 126.55 67.994 126.796 68.414 127.12C68.846 127.444 69.212 127.834 69.512 128.29L67.622 130.108C67.37 129.796 67.094 129.538 66.794 129.334C66.506 129.13 66.194 128.974 65.858 128.866C65.534 128.758 65.198 128.704 64.85 128.704C64.49 128.704 64.178 128.752 63.914 128.848C63.662 128.932 63.464 129.058 63.32 129.226C63.176 129.382 63.104 129.574 63.104 129.802C63.104 130.006 63.164 130.18 63.284 130.324C63.404 130.468 63.566 130.6 63.77 130.72C63.974 130.828 64.208 130.924 64.472 131.008C64.736 131.08 65.012 131.14 65.3 131.188C65.96 131.32 66.554 131.494 67.082 131.71C67.622 131.926 68.084 132.19 68.468 132.502C68.864 132.814 69.164 133.186 69.368 133.618C69.584 134.038 69.692 134.53 69.692 135.094C69.692 135.97 69.476 136.714 69.044 137.326C68.624 137.926 68.042 138.388 67.298 138.712C66.566 139.024 65.72 139.18 64.76 139.18ZM72.4782 139V127.03H75.3582V139H72.4782ZM70.7862 131.962V129.442H77.2122V131.962H70.7862ZM82.2982 139.162C81.4942 139.162 80.7742 138.952 80.1382 138.532C79.5142 138.1 79.0162 137.512 78.6442 136.768C78.2722 136.012 78.0862 135.16 78.0862 134.212C78.0862 133.24 78.2722 132.382 78.6442 131.638C79.0162 130.894 79.5262 130.312 80.1742 129.892C80.8222 129.46 81.5602 129.244 82.3882 129.244C82.8442 129.244 83.2582 129.31 83.6302 129.442C84.0142 129.574 84.3502 129.76 84.6382 130C84.9262 130.228 85.1722 130.498 85.3762 130.81C85.5802 131.11 85.7302 131.434 85.8262 131.782L85.2322 131.71V129.442H88.0942V139H85.1782V136.696L85.8262 136.678C85.7302 137.014 85.5742 137.332 85.3582 137.632C85.1422 137.932 84.8782 138.196 84.5662 138.424C84.2542 138.652 83.9062 138.832 83.5222 138.964C83.1382 139.096 82.7302 139.162 82.2982 139.162ZM83.0902 136.732C83.5342 136.732 83.9182 136.63 84.2422 136.426C84.5662 136.222 84.8182 135.934 84.9982 135.562C85.1782 135.178 85.2682 134.728 85.2682 134.212C85.2682 133.696 85.1782 133.252 84.9982 132.88C84.8182 132.496 84.5662 132.202 84.2422 131.998C83.9182 131.782 83.5342 131.674 83.0902 131.674C82.6582 131.674 82.2802 131.782 81.9562 131.998C81.6442 132.202 81.3982 132.496 81.2182 132.88C81.0382 133.252 80.9482 133.696 80.9482 134.212C80.9482 134.728 81.0382 135.178 81.2182 135.562C81.3982 135.934 81.6442 136.222 81.9562 136.426C82.2802 136.63 82.6582 136.732 83.0902 136.732ZM91.4274 139V127.03L94.3074 127.03V139H91.4274ZM89.7354 131.962V129.442H96.1614V131.962H89.7354ZM97.9693 139V129.442H100.849V139H97.9693ZM99.4093 127.552C98.8693 127.552 98.4433 127.426 98.1313 127.174C97.8313 126.91 97.6813 126.538 97.6813 126.058C97.6813 125.626 97.8373 125.272 98.1493 124.996C98.4613 124.72 98.8813 124.582 99.4093 124.582C99.9493 124.582 100.369 124.714 100.669 124.978C100.969 125.23 101.119 125.59 101.119 126.058C101.119 126.502 100.963 126.862 100.651 127.138C100.351 127.414 99.9373 127.552 99.4093 127.552ZM106.777 139.18C105.841 139.18 105.013 139.03 104.293 138.73C103.585 138.43 103.021 138.028 102.601 137.524L104.347 136.012C104.719 136.384 105.139 136.66 105.607 136.84C106.075 137.008 106.519 137.092 106.939 137.092C107.107 137.092 107.257 137.074 107.389 137.038C107.521 137.002 107.629 136.954 107.713 136.894C107.809 136.822 107.881 136.744 107.929 136.66C107.977 136.564 108.001 136.456 108.001 136.336C108.001 136.096 107.893 135.91 107.677 135.778C107.569 135.718 107.389 135.646 107.137 135.562C106.885 135.478 106.561 135.382 106.165 135.274C105.601 135.13 105.109 134.962 104.689 134.77C104.281 134.566 103.945 134.332 103.681 134.068C103.441 133.816 103.255 133.54 103.123 133.24C102.991 132.928 102.925 132.58 102.925 132.196C102.925 131.752 103.027 131.35 103.231 130.99C103.447 130.63 103.729 130.318 104.077 130.054C104.437 129.79 104.845 129.592 105.301 129.46C105.769 129.316 106.249 129.244 106.741 129.244C107.269 129.244 107.773 129.304 108.253 129.424C108.733 129.544 109.177 129.712 109.585 129.928C110.005 130.144 110.377 130.402 110.701 130.702L109.189 132.394C108.973 132.19 108.727 132.01 108.451 131.854C108.187 131.686 107.911 131.554 107.623 131.458C107.335 131.362 107.071 131.314 106.831 131.314C106.651 131.314 106.489 131.332 106.345 131.368C106.213 131.392 106.099 131.44 106.003 131.512C105.907 131.572 105.835 131.65 105.787 131.746C105.739 131.83 105.715 131.932 105.715 132.052C105.715 132.172 105.745 132.286 105.805 132.394C105.877 132.502 105.973 132.592 106.093 132.664C106.213 132.736 106.405 132.82 106.669 132.916C106.933 133 107.293 133.108 107.749 133.24C108.313 133.396 108.799 133.57 109.207 133.762C109.615 133.954 109.939 134.182 110.179 134.446C110.371 134.65 110.515 134.89 110.611 135.166C110.707 135.43 110.755 135.718 110.755 136.03C110.755 136.642 110.581 137.188 110.233 137.668C109.897 138.136 109.429 138.508 108.829 138.784C108.229 139.048 107.545 139.18 106.777 139.18ZM113.259 139V127.03H116.139V139H113.259ZM111.567 131.962V129.442H117.993V131.962H111.567ZM119.801 139V129.442L122.681 129.442V139H119.801ZM121.241 127.552C120.701 127.552 120.275 127.426 119.963 127.174C119.663 126.91 119.513 126.538 119.513 126.058C119.513 125.626 119.669 125.272 119.981 124.996C120.293 124.72 120.713 124.582 121.241 124.582C121.781 124.582 122.201 124.714 122.501 124.978C122.801 125.23 122.951 125.59 122.951 126.058C122.951 126.502 122.795 126.862 122.483 127.138C122.183 127.414 121.769 127.552 121.241 127.552ZM129.581 139.18C128.657 139.18 127.829 138.964 127.097 138.532C126.365 138.1 125.783 137.512 125.351 136.768C124.931 136.012 124.721 135.16 124.721 134.212C124.721 133.264 124.931 132.418 125.351 131.674C125.783 130.918 126.365 130.324 127.097 129.892C127.829 129.46 128.657 129.244 129.581 129.244C130.433 129.244 131.213 129.394 131.921 129.694C132.641 129.994 133.211 130.414 133.631 130.954L132.065 132.826C131.897 132.634 131.699 132.454 131.471 132.286C131.243 132.118 130.991 131.986 130.715 131.89C130.439 131.794 130.151 131.746 129.851 131.746C129.395 131.746 128.993 131.854 128.645 132.07C128.297 132.274 128.027 132.562 127.835 132.934C127.643 133.306 127.547 133.732 127.547 134.212C127.547 134.668 127.643 135.082 127.835 135.454C128.039 135.826 128.315 136.12 128.663 136.336C129.011 136.552 129.407 136.66 129.851 136.66C130.163 136.66 130.451 136.624 130.715 136.552C130.979 136.468 131.219 136.348 131.435 136.192C131.663 136.036 131.873 135.844 132.065 135.616L133.613 137.506C133.205 138.022 132.635 138.43 131.903 138.73C131.183 139.03 130.409 139.18 129.581 139.18ZM138.418 139.18C137.482 139.18 136.654 139.03 135.934 138.73C135.226 138.43 134.662 138.028 134.242 137.524L135.988 136.012C136.36 136.384 136.78 136.66 137.248 136.84C137.716 137.008 138.16 137.092 138.58 137.092C138.748 137.092 138.898 137.074 139.03 137.038C139.162 137.002 139.27 136.954 139.354 136.894C139.45 136.822 139.522 136.744 139.57 136.66C139.618 136.564 139.642 136.456 139.642 136.336C139.642 136.096 139.534 135.91 139.318 135.778C139.21 135.718 139.03 135.646 138.778 135.562C138.526 135.478 138.202 135.382 137.806 135.274C137.242 135.13 136.75 134.962 136.33 134.77C135.922 134.566 135.586 134.332 135.322 134.068C135.082 133.816 134.896 133.54 134.764 133.24C134.632 132.928 134.566 132.58 134.566 132.196C134.566 131.752 134.668 131.35 134.872 130.99C135.088 130.63 135.37 130.318 135.718 130.054C136.078 129.79 136.486 129.592 136.942 129.46C137.41 129.316 137.89 129.244 138.382 129.244C138.91 129.244 139.414 129.304 139.894 129.424C140.374 129.544 140.818 129.712 141.226 129.928C141.646 130.144 142.018 130.402 142.342 130.702L140.83 132.394C140.614 132.19 140.368 132.01 140.092 131.854C139.828 131.686 139.552 131.554 139.264 131.458C138.976 131.362 138.712 131.314 138.472 131.314C138.292 131.314 138.13 131.332 137.986 131.368C137.854 131.392 137.74 131.44 137.644 131.512C137.548 131.572 137.476 131.65 137.428 131.746C137.38 131.83 137.356 131.932 137.356 132.052C137.356 132.172 137.386 132.286 137.446 132.394C137.518 132.502 137.614 132.592 137.734 132.664C137.854 132.736 138.046 132.82 138.31 132.916C138.574 133 138.934 133.108 139.39 133.24C139.954 133.396 140.44 133.57 140.848 133.762C141.256 133.954 141.58 134.182 141.82 134.446C142.012 134.65 142.156 134.89 142.252 135.166C142.348 135.43 142.396 135.718 142.396 136.03C142.396 136.642 142.222 137.188 141.874 137.668C141.538 138.136 141.07 138.508 140.47 138.784C139.87 139.048 139.186 139.18 138.418 139.18Z" fill="#323743"/>
<path d="M155.001 138.285C158.472 138.285 161.286 135.471 161.286 132C161.286 128.528 158.472 125.714 155.001 125.714C151.529 125.714 148.715 128.528 148.715 132C148.715 135.471 151.529 138.285 155.001 138.285Z" stroke="#3C4CAC" stroke-width="1.37143" stroke-miterlimit="10" stroke-linecap="square"/>
<path d="M155 131.429V134.857" stroke="#3C4CAC" stroke-width="1.37143" stroke-miterlimit="10" stroke-linecap="square"/>
<path d="M154.999 129.714C155.315 129.714 155.571 129.458 155.571 129.143C155.571 128.827 155.315 128.571 154.999 128.571C154.684 128.571 154.428 128.827 154.428 129.143C154.428 129.458 154.684 129.714 154.999 129.714Z" fill="#3C4CAC"/>
<path d="M472.542 137L469.07 126.92H470.141L473.214 135.831L476.308 126.92H477.379L473.907 137H472.542ZM478.296 128.005V126.85H479.325V128.005H478.296ZM478.296 137V129.44H479.325V137H478.296ZM484.622 137.21C483.885 137.21 483.246 137.047 482.704 136.72C482.168 136.393 481.75 135.934 481.451 135.341C481.153 134.748 481.003 134.053 481.003 133.255C481.003 132.429 481.15 131.715 481.444 131.113C481.738 130.511 482.151 130.047 482.683 129.72C483.22 129.393 483.852 129.23 484.58 129.23C485.327 129.23 485.964 129.403 486.491 129.748C487.019 130.089 487.418 130.579 487.688 131.218C487.959 131.857 488.083 132.62 488.059 133.507H487.009V133.143C486.991 132.163 486.778 131.423 486.372 130.924C485.971 130.425 485.383 130.175 484.608 130.175C483.796 130.175 483.173 130.439 482.739 130.966C482.31 131.493 482.095 132.245 482.095 133.22C482.095 134.172 482.31 134.912 482.739 135.439C483.173 135.962 483.787 136.223 484.58 136.223C485.122 136.223 485.593 136.099 485.994 135.852C486.4 135.6 486.72 135.238 486.953 134.767L487.912 135.138C487.614 135.796 487.173 136.307 486.589 136.671C486.011 137.03 485.355 137.21 484.622 137.21ZM481.731 133.507V132.646H487.506V133.507H481.731ZM490.949 137L488.639 129.433L489.668 129.44L491.46 135.313L493.259 129.44H494.197L495.996 135.313L497.802 129.44H498.824L496.514 137H495.618L493.728 130.98L491.845 137H490.949ZM505.821 137.21C505.117 137.21 504.515 137.035 504.015 136.685C503.516 136.33 503.133 135.852 502.867 135.25C502.601 134.648 502.468 133.969 502.468 133.213C502.468 132.462 502.599 131.785 502.86 131.183C503.126 130.581 503.507 130.105 504.001 129.755C504.496 129.405 505.089 129.23 505.779 129.23C506.489 129.23 507.086 129.403 507.571 129.748C508.057 130.093 508.423 130.567 508.67 131.169C508.922 131.766 509.048 132.448 509.048 133.213C509.048 133.964 508.925 134.643 508.677 135.25C508.43 135.852 508.066 136.33 507.585 136.685C507.105 137.035 506.517 137.21 505.821 137.21ZM505.926 136.251C506.463 136.251 506.906 136.12 507.256 135.859C507.606 135.598 507.868 135.238 508.04 134.781C508.213 134.319 508.299 133.796 508.299 133.213C508.299 132.62 508.213 132.098 508.04 131.645C507.868 131.188 507.606 130.831 507.256 130.574C506.911 130.317 506.475 130.189 505.947 130.189C505.406 130.189 504.958 130.322 504.603 130.588C504.249 130.854 503.985 131.216 503.812 131.673C503.644 132.13 503.56 132.644 503.56 133.213C503.56 133.787 503.647 134.305 503.819 134.767C503.997 135.224 504.26 135.586 504.61 135.852C504.96 136.118 505.399 136.251 505.926 136.251ZM508.299 137V131.309H508.187V126.92H509.223V137H508.299ZM514.386 137.21C513.649 137.21 513.009 137.047 512.468 136.72C511.931 136.393 511.514 135.934 511.215 135.341C510.916 134.748 510.767 134.053 510.767 133.255C510.767 132.429 510.914 131.715 511.208 131.113C511.502 130.511 511.915 130.047 512.447 129.72C512.984 129.393 513.616 129.23 514.344 129.23C515.091 129.23 515.728 129.403 516.255 129.748C516.782 130.089 517.181 130.579 517.452 131.218C517.723 131.857 517.846 132.62 517.823 133.507H516.773V133.143C516.754 132.163 516.542 131.423 516.136 130.924C515.735 130.425 515.147 130.175 514.372 130.175C513.56 130.175 512.937 130.439 512.503 130.966C512.074 131.493 511.859 132.245 511.859 133.22C511.859 134.172 512.074 134.912 512.503 135.439C512.937 135.962 513.551 136.223 514.344 136.223C514.885 136.223 515.357 136.099 515.758 135.852C516.164 135.6 516.484 135.238 516.717 134.767L517.676 135.138C517.377 135.796 516.936 136.307 516.353 136.671C515.774 137.03 515.119 137.21 514.386 137.21ZM511.495 133.507V132.646H517.27V133.507H511.495ZM523.492 137C523.068 137.089 522.648 137.124 522.232 137.105C521.822 137.086 521.453 136.998 521.126 136.839C520.804 136.68 520.559 136.433 520.391 136.097C520.256 135.817 520.181 135.535 520.167 135.25C520.158 134.961 520.153 134.632 520.153 134.263V127.34H521.175V134.221C521.175 134.538 521.178 134.804 521.182 135.019C521.192 135.229 521.241 135.416 521.329 135.579C521.497 135.892 521.763 136.078 522.127 136.139C522.496 136.2 522.951 136.186 523.492 136.097V137ZM518.536 130.322V129.44H523.492V130.322H518.536ZM527.145 137.21C526.576 137.21 526.097 137.107 525.71 136.902C525.327 136.697 525.04 136.424 524.849 136.083C524.658 135.742 524.562 135.371 524.562 134.97C524.562 134.559 524.644 134.209 524.807 133.92C524.975 133.626 525.201 133.386 525.486 133.199C525.775 133.012 526.109 132.87 526.487 132.772C526.87 132.679 527.292 132.597 527.754 132.527C528.221 132.452 528.676 132.389 529.119 132.338C529.567 132.282 529.959 132.228 530.295 132.177L529.931 132.401C529.945 131.654 529.8 131.101 529.497 130.742C529.194 130.383 528.666 130.203 527.915 130.203C527.397 130.203 526.958 130.32 526.599 130.553C526.244 130.786 525.995 131.155 525.85 131.659L524.849 131.365C525.022 130.688 525.369 130.163 525.892 129.79C526.415 129.417 527.094 129.23 527.929 129.23C528.62 129.23 529.205 129.361 529.686 129.622C530.171 129.879 530.514 130.252 530.715 130.742C530.808 130.961 530.869 131.206 530.897 131.477C530.925 131.748 530.939 132.023 530.939 132.303V137H530.022V135.103L530.288 135.215C530.031 135.864 529.632 136.358 529.091 136.699C528.55 137.04 527.901 137.21 527.145 137.21ZM527.264 136.321C527.745 136.321 528.165 136.235 528.524 136.062C528.883 135.889 529.173 135.654 529.392 135.355C529.611 135.052 529.754 134.711 529.819 134.333C529.875 134.09 529.905 133.824 529.91 133.535C529.915 133.241 529.917 133.022 529.917 132.877L530.309 133.08C529.959 133.127 529.579 133.173 529.168 133.22C528.762 133.267 528.361 133.32 527.964 133.381C527.572 133.442 527.217 133.514 526.9 133.598C526.685 133.659 526.478 133.745 526.277 133.857C526.076 133.964 525.911 134.109 525.78 134.291C525.654 134.473 525.591 134.699 525.591 134.97C525.591 135.189 525.645 135.402 525.752 135.607C525.864 135.812 526.041 135.983 526.284 136.118C526.531 136.253 526.858 136.321 527.264 136.321ZM532.901 128.005V126.85H533.93V128.005H532.901ZM532.901 137V129.44H533.93V137H532.901ZM536.169 137V126.71H537.198V137H536.169Z" fill="#6D31ED"/>
<path d="M110.894 305V294.792L108.726 296.096V294.776L110.894 293.48H112.086V305H110.894Z" fill="#323743"/>
<path d="M105.675 246.992L105.683 245.92L110.891 241.216C111.339 240.811 111.635 240.427 111.779 240.064C111.928 239.696 112.003 239.312 112.003 238.912C112.003 238.437 111.891 238.008 111.667 237.624C111.443 237.24 111.142 236.936 110.763 236.712C110.384 236.483 109.96 236.368 109.491 236.368C109 236.368 108.563 236.485 108.179 236.72C107.795 236.955 107.491 237.264 107.267 237.648C107.048 238.032 106.942 238.451 106.947 238.904H105.747C105.747 238.205 105.912 237.579 106.243 237.024C106.574 236.469 107.022 236.035 107.587 235.72C108.152 235.4 108.792 235.24 109.507 235.24C110.206 235.24 110.832 235.405 111.387 235.736C111.947 236.061 112.387 236.504 112.707 237.064C113.032 237.619 113.195 238.237 113.195 238.92C113.195 239.4 113.136 239.824 113.019 240.192C112.907 240.555 112.728 240.893 112.483 241.208C112.243 241.517 111.936 241.837 111.563 242.168L106.939 246.344L106.755 245.864H113.195V246.992H105.675Z" fill="#323743"/>
<path d="M108.372 189.232C107.802 189.232 107.276 189.131 106.796 188.928C106.316 188.725 105.903 188.437 105.556 188.064C105.21 187.685 104.956 187.235 104.796 186.712L105.916 186.376C106.108 186.947 106.423 187.379 106.86 187.672C107.303 187.965 107.802 188.107 108.356 188.096C108.868 188.085 109.308 187.971 109.676 187.752C110.05 187.533 110.335 187.229 110.532 186.84C110.73 186.451 110.828 186 110.828 185.488C110.828 184.704 110.599 184.075 110.14 183.6C109.687 183.12 109.087 182.88 108.34 182.88C108.132 182.88 107.914 182.909 107.684 182.968C107.455 183.021 107.242 183.099 107.044 183.2L106.452 182.264L110.932 178.128L111.124 178.608H105.252V177.48H111.908V178.624L108.004 182.352L107.988 181.888C108.788 181.787 109.492 181.877 110.1 182.16C110.708 182.443 111.183 182.875 111.524 183.456C111.871 184.032 112.044 184.709 112.044 185.488C112.044 186.224 111.884 186.875 111.564 187.44C111.25 188 110.815 188.44 110.26 188.76C109.706 189.075 109.076 189.232 108.372 189.232Z" fill="#323743"/>
<path d="M108.114 363.24C107.405 363.24 106.765 363.075 106.194 362.744C105.629 362.413 105.181 361.965 104.85 361.4C104.52 360.829 104.354 360.189 104.354 359.48V355C104.354 354.291 104.52 353.653 104.85 353.088C105.181 352.517 105.629 352.067 106.194 351.736C106.765 351.405 107.405 351.24 108.114 351.24C108.824 351.24 109.461 351.405 110.026 351.736C110.597 352.067 111.048 352.517 111.378 353.088C111.709 353.653 111.874 354.291 111.874 355V359.48C111.874 360.189 111.709 360.829 111.378 361.4C111.048 361.965 110.597 362.413 110.026 362.744C109.461 363.075 108.824 363.24 108.114 363.24ZM108.114 362.104C108.589 362.104 109.021 361.989 109.41 361.76C109.8 361.525 110.109 361.213 110.338 360.824C110.568 360.435 110.682 360.005 110.682 359.536V354.944C110.682 354.469 110.568 354.037 110.338 353.648C110.109 353.259 109.8 352.949 109.41 352.72C109.021 352.485 108.589 352.368 108.114 352.368C107.64 352.368 107.208 352.485 106.818 352.72C106.429 352.949 106.12 353.259 105.89 353.648C105.661 354.037 105.546 354.469 105.546 354.944V359.536C105.546 360.005 105.661 360.435 105.89 360.824C106.12 361.213 106.429 361.525 106.818 361.76C107.208 361.989 107.64 362.104 108.114 362.104Z" fill="#323743"/>
<path d="M141 180V355" stroke="#DEE1E6" stroke-width="2"/>
<path d="M205.834 180V355" stroke="#DEE1E6" stroke-width="2"/>
<path d="M270.666 180V355" stroke="#DEE1E6" stroke-width="2"/>
<path d="M335.5 180V355" stroke="#DEE1E6" stroke-width="2"/>
<path d="M400.334 180V355" stroke="#DEE1E6" stroke-width="2"/>
<path d="M465.166 180V355" stroke="#DEE1E6" stroke-width="2"/>
<path d="M530 180V355" stroke="#DEE1E6" stroke-width="2"/>
<path d="M141 242.53C141 242.53 204.478 313.146 238.25 303.994C282.278 292.062 295.178 192.783 335.5 189.819C372.978 187.064 389.55 279.696 432.75 289.697C467.35 297.707 530 234.847 530 234.847" stroke="#6D31ED" stroke-width="2"/>
<path d="M141 200.274C141 200.274 189.512 296.94 238.25 331.831C267.312 352.636 297.028 342.361 335.5 339.514C374.828 336.604 393.982 316.862 432.75 317.439C471.782 318.02 530 342.409 530 342.409" stroke="#15ABFF" stroke-width="2"/>
<path d="M120.324 392V381.92H121.269L125.231 390.397L129.172 381.92H130.131V391.993H129.151V384.216L125.56 392H124.895L121.311 384.216V392H120.324ZM134.258 392.21C133.689 392.21 133.211 392.107 132.823 391.902C132.441 391.697 132.154 391.424 131.962 391.083C131.771 390.742 131.675 390.371 131.675 389.97C131.675 389.559 131.757 389.209 131.92 388.92C132.088 388.626 132.315 388.386 132.599 388.199C132.889 388.012 133.222 387.87 133.6 387.772C133.983 387.679 134.405 387.597 134.867 387.527C135.334 387.452 135.789 387.389 136.232 387.338C136.68 387.282 137.072 387.228 137.408 387.177L137.044 387.401C137.058 386.654 136.914 386.101 136.61 385.742C136.307 385.383 135.78 385.203 135.028 385.203C134.51 385.203 134.072 385.32 133.712 385.553C133.358 385.786 133.108 386.155 132.963 386.659L131.962 386.365C132.135 385.688 132.483 385.163 133.005 384.79C133.528 384.417 134.207 384.23 135.042 384.23C135.733 384.23 136.319 384.361 136.799 384.622C137.285 384.879 137.628 385.252 137.828 385.742C137.922 385.961 137.982 386.206 138.01 386.477C138.038 386.748 138.052 387.023 138.052 387.303V392H137.135V390.103L137.401 390.215C137.145 390.864 136.746 391.358 136.204 391.699C135.663 392.04 135.014 392.21 134.258 392.21ZM134.377 391.321C134.858 391.321 135.278 391.235 135.637 391.062C135.997 390.889 136.286 390.654 136.505 390.355C136.725 390.052 136.867 389.711 136.932 389.333C136.988 389.09 137.019 388.824 137.023 388.535C137.028 388.241 137.03 388.022 137.03 387.877L137.422 388.08C137.072 388.127 136.692 388.173 136.281 388.22C135.875 388.267 135.474 388.32 135.077 388.381C134.685 388.442 134.331 388.514 134.013 388.598C133.799 388.659 133.591 388.745 133.39 388.857C133.19 388.964 133.024 389.109 132.893 389.291C132.767 389.473 132.704 389.699 132.704 389.97C132.704 390.189 132.758 390.402 132.865 390.607C132.977 390.812 133.155 390.983 133.397 391.118C133.645 391.253 133.971 391.321 134.377 391.321ZM140.529 395.36L141.992 391.391L142.013 392.567L138.702 384.44H139.794L142.51 391.237H142.062L144.568 384.44H145.618L141.558 395.36H140.529ZM152.926 392.21C152.306 392.21 151.746 392.065 151.246 391.776C150.752 391.487 150.36 391.095 150.07 390.6C149.781 390.101 149.636 389.541 149.636 388.92V385C149.636 384.379 149.781 383.822 150.07 383.327C150.36 382.828 150.752 382.433 151.246 382.144C151.746 381.855 152.306 381.71 152.926 381.71C153.547 381.71 154.105 381.855 154.599 382.144C155.099 382.433 155.493 382.828 155.782 383.327C156.072 383.822 156.216 384.379 156.216 385V388.92C156.216 389.541 156.072 390.101 155.782 390.6C155.493 391.095 155.099 391.487 154.599 391.776C154.105 392.065 153.547 392.21 152.926 392.21ZM152.926 391.216C153.342 391.216 153.72 391.116 154.06 390.915C154.401 390.71 154.672 390.437 154.872 390.096C155.073 389.755 155.173 389.38 155.173 388.969V384.951C155.173 384.536 155.073 384.158 154.872 383.817C154.672 383.476 154.401 383.206 154.06 383.005C153.72 382.8 153.342 382.697 152.926 382.697C152.511 382.697 152.133 382.8 151.792 383.005C151.452 383.206 151.181 383.476 150.98 383.817C150.78 384.158 150.679 384.536 150.679 384.951V388.969C150.679 389.38 150.78 389.755 150.98 390.096C151.181 390.437 151.452 390.71 151.792 390.915C152.133 391.116 152.511 391.216 152.926 391.216ZM159.938 392V383.068L158.041 384.209V383.054L159.938 381.92H160.981V392H159.938Z" fill="#9095A1"/>
<path d="M505.038 392V381.92H505.983L509.945 390.397L513.886 381.92H514.845V391.993H513.865V384.216L510.274 392H509.609L506.025 384.216V392H505.038ZM518.972 392.21C518.403 392.21 517.924 392.107 517.537 391.902C517.154 391.697 516.867 391.424 516.676 391.083C516.485 390.742 516.389 390.371 516.389 389.97C516.389 389.559 516.471 389.209 516.634 388.92C516.802 388.626 517.028 388.386 517.313 388.199C517.602 388.012 517.936 387.87 518.314 387.772C518.697 387.679 519.119 387.597 519.581 387.527C520.048 387.452 520.503 387.389 520.946 387.338C521.394 387.282 521.786 387.228 522.122 387.177L521.758 387.401C521.772 386.654 521.627 386.101 521.324 385.742C521.021 385.383 520.493 385.203 519.742 385.203C519.224 385.203 518.785 385.32 518.426 385.553C518.071 385.786 517.822 386.155 517.677 386.659L516.676 386.365C516.849 385.688 517.196 385.163 517.719 384.79C518.242 384.417 518.921 384.23 519.756 384.23C520.447 384.23 521.032 384.361 521.513 384.622C521.998 384.879 522.341 385.252 522.542 385.742C522.635 385.961 522.696 386.206 522.724 386.477C522.752 386.748 522.766 387.023 522.766 387.303V392H521.849V390.103L522.115 390.215C521.858 390.864 521.459 391.358 520.918 391.699C520.377 392.04 519.728 392.21 518.972 392.21ZM519.091 391.321C519.572 391.321 519.992 391.235 520.351 391.062C520.71 390.889 521 390.654 521.219 390.355C521.438 390.052 521.581 389.711 521.646 389.333C521.702 389.09 521.732 388.824 521.737 388.535C521.742 388.241 521.744 388.022 521.744 387.877L522.136 388.08C521.786 388.127 521.406 388.173 520.995 388.22C520.589 388.267 520.188 388.32 519.791 388.381C519.399 388.442 519.044 388.514 518.727 388.598C518.512 388.659 518.305 388.745 518.104 388.857C517.903 388.964 517.738 389.109 517.607 389.291C517.481 389.473 517.418 389.699 517.418 389.97C517.418 390.189 517.472 390.402 517.579 390.607C517.691 390.812 517.868 390.983 518.111 391.118C518.358 391.253 518.685 391.321 519.091 391.321ZM525.243 395.36L526.706 391.391L526.727 392.567L523.416 384.44H524.508L527.224 391.237H526.776L529.282 384.44H530.332L526.272 395.36H525.243ZM537.64 392.21C537.019 392.21 536.459 392.065 535.96 391.776C535.465 391.487 535.073 391.095 534.784 390.6C534.495 390.101 534.35 389.541 534.35 388.92V385C534.35 384.379 534.495 383.822 534.784 383.327C535.073 382.828 535.465 382.433 535.96 382.144C536.459 381.855 537.019 381.71 537.64 381.71C538.261 381.71 538.818 381.855 539.313 382.144C539.812 382.433 540.207 382.828 540.496 383.327C540.785 383.822 540.93 384.379 540.93 385V388.92C540.93 389.541 540.785 390.101 540.496 390.6C540.207 391.095 539.812 391.487 539.313 391.776C538.818 392.065 538.261 392.21 537.64 392.21ZM537.64 391.216C538.055 391.216 538.433 391.116 538.774 390.915C539.115 390.71 539.385 390.437 539.586 390.096C539.787 389.755 539.887 389.38 539.887 388.969V384.951C539.887 384.536 539.787 384.158 539.586 383.817C539.385 383.476 539.115 383.206 538.774 383.005C538.433 382.8 538.055 382.697 537.64 382.697C537.225 382.697 536.847 382.8 536.506 383.005C536.165 383.206 535.895 383.476 535.694 383.817C535.493 384.158 535.393 384.536 535.393 384.951V388.969C535.393 389.38 535.493 389.755 535.694 390.096C535.895 390.437 536.165 390.71 536.506 390.915C536.847 391.116 537.225 391.216 537.64 391.216ZM543.434 392L547.144 382.921H542.475V381.92H548.243V382.921L544.54 392H543.434Z" fill="#9095A1"/>
<path d="M250.182 392V381.92H251.127L255.089 390.397L259.03 381.92H259.989V391.993H259.009V384.216L255.418 392H254.753L251.169 384.216V392H250.182ZM264.117 392.21C263.547 392.21 263.069 392.107 262.682 391.902C262.299 391.697 262.012 391.424 261.821 391.083C261.629 390.742 261.534 390.371 261.534 389.97C261.534 389.559 261.615 389.209 261.779 388.92C261.947 388.626 262.173 388.386 262.458 388.199C262.747 388.012 263.081 387.87 263.459 387.772C263.841 387.679 264.264 387.597 264.726 387.527C265.192 387.452 265.647 387.389 266.091 387.338C266.539 387.282 266.931 387.228 267.267 387.177L266.903 387.401C266.917 386.654 266.772 386.101 266.469 385.742C266.165 385.383 265.638 385.203 264.887 385.203C264.369 385.203 263.93 385.32 263.571 385.553C263.216 385.786 262.966 386.155 262.822 386.659L261.821 386.365C261.993 385.688 262.341 385.163 262.864 384.79C263.386 384.417 264.065 384.23 264.901 384.23C265.591 384.23 266.177 384.361 266.658 384.622C267.143 384.879 267.486 385.252 267.687 385.742C267.78 385.961 267.841 386.206 267.869 386.477C267.897 386.748 267.911 387.023 267.911 387.303V392H266.994V390.103L267.26 390.215C267.003 390.864 266.604 391.358 266.063 391.699C265.521 392.04 264.873 392.21 264.117 392.21ZM264.236 391.321C264.716 391.321 265.136 391.235 265.496 391.062C265.855 390.889 266.144 390.654 266.364 390.355C266.583 390.052 266.725 389.711 266.791 389.333C266.847 389.09 266.877 388.824 266.882 388.535C266.886 388.241 266.889 388.022 266.889 387.877L267.281 388.08C266.931 388.127 266.55 388.173 266.14 388.22C265.734 388.267 265.332 388.32 264.936 388.381C264.544 388.442 264.189 388.514 263.872 388.598C263.657 388.659 263.449 388.745 263.249 388.857C263.048 388.964 262.882 389.109 262.752 389.291C262.626 389.473 262.563 389.699 262.563 389.97C262.563 390.189 262.616 390.402 262.724 390.607C262.836 390.812 263.013 390.983 263.256 391.118C263.503 391.253 263.83 391.321 264.236 391.321ZM270.387 395.36L271.85 391.391L271.871 392.567L268.56 384.44H269.652L272.368 391.237H271.92L274.426 384.44H275.476L271.416 395.36H270.387ZM282.785 392.21C282.164 392.21 281.604 392.065 281.105 391.776C280.61 391.487 280.218 391.095 279.929 390.6C279.639 390.101 279.495 389.541 279.495 388.92V385C279.495 384.379 279.639 383.822 279.929 383.327C280.218 382.828 280.61 382.433 281.105 382.144C281.604 381.855 282.164 381.71 282.785 381.71C283.405 381.71 283.963 381.855 284.458 382.144C284.957 382.433 285.351 382.828 285.641 383.327C285.93 383.822 286.075 384.379 286.075 385V388.92C286.075 389.541 285.93 390.101 285.641 390.6C285.351 391.095 284.957 391.487 284.458 391.776C283.963 392.065 283.405 392.21 282.785 392.21ZM282.785 391.216C283.2 391.216 283.578 391.116 283.919 390.915C284.259 390.71 284.53 390.437 284.731 390.096C284.931 389.755 285.032 389.38 285.032 388.969V384.951C285.032 384.536 284.931 384.158 284.731 383.817C284.53 383.476 284.259 383.206 283.919 383.005C283.578 382.8 283.2 382.697 282.785 382.697C282.369 382.697 281.991 382.8 281.651 383.005C281.31 383.206 281.039 383.476 280.839 383.817C280.638 384.158 280.538 384.536 280.538 384.951V388.969C280.538 389.38 280.638 389.755 280.839 390.096C281.039 390.437 281.31 390.71 281.651 390.915C281.991 391.116 282.369 391.216 282.785 391.216ZM290.749 392.203C290.249 392.203 289.79 392.114 289.37 391.937C288.95 391.76 288.588 391.508 288.285 391.181C287.981 390.85 287.76 390.455 287.62 389.998L288.6 389.704C288.768 390.203 289.043 390.581 289.426 390.838C289.813 391.095 290.249 391.218 290.735 391.209C291.183 391.2 291.568 391.099 291.89 390.908C292.216 390.717 292.466 390.451 292.639 390.11C292.811 389.769 292.898 389.375 292.898 388.927C292.898 388.241 292.697 387.69 292.296 387.275C291.899 386.855 291.374 386.645 290.721 386.645C290.539 386.645 290.347 386.671 290.147 386.722C289.946 386.769 289.759 386.836 289.587 386.925L289.069 386.106L292.989 382.487L293.157 382.907H288.019V381.92H293.843V382.921L290.427 386.183L290.413 385.777C291.113 385.688 291.729 385.768 292.261 386.015C292.793 386.262 293.208 386.64 293.507 387.149C293.81 387.653 293.962 388.246 293.962 388.927C293.962 389.571 293.822 390.14 293.542 390.635C293.266 391.125 292.886 391.51 292.401 391.79C291.915 392.065 291.365 392.203 290.749 392.203Z" fill="#9095A1"/>
<path d="M382.011 392V381.92H382.956L386.918 390.397L390.859 381.92H391.818V391.993H390.838V384.216L387.247 392H386.582L382.998 384.216V392H382.011ZM395.946 392.21C395.376 392.21 394.898 392.107 394.511 391.902C394.128 391.697 393.841 391.424 393.65 391.083C393.458 390.742 393.363 390.371 393.363 389.97C393.363 389.559 393.444 389.209 393.608 388.92C393.776 388.626 394.002 388.386 394.287 388.199C394.576 388.012 394.91 387.87 395.288 387.772C395.67 387.679 396.093 387.597 396.555 387.527C397.021 387.452 397.476 387.389 397.92 387.338C398.368 387.282 398.76 387.228 399.096 387.177L398.732 387.401C398.746 386.654 398.601 386.101 398.298 385.742C397.994 385.383 397.467 385.203 396.716 385.203C396.198 385.203 395.759 385.32 395.4 385.553C395.045 385.786 394.795 386.155 394.651 386.659L393.65 386.365C393.822 385.688 394.17 385.163 394.693 384.79C395.215 384.417 395.894 384.23 396.73 384.23C397.42 384.23 398.006 384.361 398.487 384.622C398.972 384.879 399.315 385.252 399.516 385.742C399.609 385.961 399.67 386.206 399.698 386.477C399.726 386.748 399.74 387.023 399.74 387.303V392H398.823V390.103L399.089 390.215C398.832 390.864 398.433 391.358 397.892 391.699C397.35 392.04 396.702 392.21 395.946 392.21ZM396.065 391.321C396.545 391.321 396.965 391.235 397.325 391.062C397.684 390.889 397.973 390.654 398.193 390.355C398.412 390.052 398.554 389.711 398.62 389.333C398.676 389.09 398.706 388.824 398.711 388.535C398.715 388.241 398.718 388.022 398.718 387.877L399.11 388.08C398.76 388.127 398.379 388.173 397.969 388.22C397.563 388.267 397.161 388.32 396.765 388.381C396.373 388.442 396.018 388.514 395.701 388.598C395.486 388.659 395.278 388.745 395.078 388.857C394.877 388.964 394.711 389.109 394.581 389.291C394.455 389.473 394.392 389.699 394.392 389.97C394.392 390.189 394.445 390.402 394.553 390.607C394.665 390.812 394.842 390.983 395.085 391.118C395.332 391.253 395.659 391.321 396.065 391.321ZM402.216 395.36L403.679 391.391L403.7 392.567L400.389 384.44H401.481L404.197 391.237H403.749L406.255 384.44H407.305L403.245 395.36H402.216ZM414.614 392.21C413.993 392.21 413.433 392.065 412.934 391.776C412.439 391.487 412.047 391.095 411.758 390.6C411.468 390.101 411.324 389.541 411.324 388.92V385C411.324 384.379 411.468 383.822 411.758 383.327C412.047 382.828 412.439 382.433 412.934 382.144C413.433 381.855 413.993 381.71 414.614 381.71C415.234 381.71 415.792 381.855 416.287 382.144C416.786 382.433 417.18 382.828 417.47 383.327C417.759 383.822 417.904 384.379 417.904 385V388.92C417.904 389.541 417.759 390.101 417.47 390.6C417.18 391.095 416.786 391.487 416.287 391.776C415.792 392.065 415.234 392.21 414.614 392.21ZM414.614 391.216C415.029 391.216 415.407 391.116 415.748 390.915C416.088 390.71 416.359 390.437 416.56 390.096C416.76 389.755 416.861 389.38 416.861 388.969V384.951C416.861 384.536 416.76 384.158 416.56 383.817C416.359 383.476 416.088 383.206 415.748 383.005C415.407 382.8 415.029 382.697 414.614 382.697C414.198 382.697 413.82 382.8 413.48 383.005C413.139 383.206 412.868 383.476 412.668 383.817C412.467 384.158 412.367 384.536 412.367 384.951V388.969C412.367 389.38 412.467 389.755 412.668 390.096C412.868 390.437 413.139 390.71 413.48 390.915C413.82 391.116 414.198 391.216 414.614 391.216ZM422.844 392.21C422.321 392.21 421.838 392.103 421.395 391.888C420.951 391.673 420.573 391.377 420.261 390.999C419.948 390.621 419.724 390.187 419.589 389.697L420.576 389.431C420.664 389.795 420.825 390.11 421.059 390.376C421.292 390.637 421.565 390.84 421.878 390.985C422.195 391.13 422.526 391.202 422.872 391.202C423.32 391.202 423.721 391.095 424.076 390.88C424.435 390.661 424.72 390.371 424.93 390.012C425.14 389.653 425.245 389.258 425.245 388.829C425.245 388.386 425.135 387.987 424.916 387.632C424.696 387.273 424.407 386.988 424.048 386.778C423.688 386.568 423.296 386.463 422.872 386.463C422.396 386.463 421.985 386.568 421.64 386.778C421.294 386.983 421.019 387.242 420.814 387.555L419.876 387.163L420.184 381.92H425.567V382.907H420.639L421.15 382.424L420.877 386.897L420.618 386.554C420.907 386.223 421.257 385.964 421.668 385.777C422.078 385.59 422.51 385.497 422.963 385.497C423.583 385.497 424.143 385.646 424.643 385.945C425.142 386.239 425.539 386.638 425.833 387.142C426.127 387.646 426.274 388.208 426.274 388.829C426.274 389.445 426.117 390.01 425.805 390.523C425.492 391.032 425.077 391.44 424.559 391.748C424.041 392.056 423.469 392.21 422.844 392.21Z" fill="#9095A1"/>
</g>
<g filter="url(#filter1_dd_10580_292)">
<rect x="273" y="9" width="344" height="141" rx="8" fill="white" fill-opacity="0.98"/>
<rect x="445" y="82" width="6.34286" height="30" fill="#6D31ED"/>
<rect x="452.752" y="72" width="6.34286" height="40" fill="#15ABFF"/>
<rect x="467.318" y="80" width="6.34286" height="32" fill="#6D31ED"/>
<rect x="475.07" y="95" width="6.34286" height="17" fill="#15ABFF"/>
<rect x="489.635" y="94" width="6.34286" height="18" fill="#6D31ED"/>
<rect x="497.387" y="88" width="6.34286" height="24" fill="#15ABFF"/>
<rect x="511.953" y="46" width="6.34286" height="66" fill="#6D31ED"/>
<rect x="519.705" y="74" width="6.34286" height="38" fill="#15ABFF"/>
<rect x="534.27" y="96" width="6.34286" height="16" fill="#6D31ED"/>
<rect x="542.021" y="93" width="6.34286" height="19" fill="#15ABFF"/>
<rect x="556.588" y="63" width="6.34286" height="49" fill="#6D31ED"/>
<rect x="564.34" y="49" width="6.34286" height="63" fill="#15ABFF"/>
<rect x="578.904" y="94" width="6.34286" height="18" fill="#6D31ED"/>
<rect x="586.656" y="79" width="6.34286" height="33" fill="#15ABFF"/>
<path d="M298.233 51V40.8182H301.673C302.472 40.8182 303.125 40.9624 303.632 41.2507C304.143 41.5357 304.52 41.9219 304.766 42.4091C305.011 42.8963 305.134 43.4399 305.134 44.0398C305.134 44.6397 305.011 45.1849 304.766 45.6754C304.524 46.166 304.149 46.5571 303.642 46.8487C303.135 47.1371 302.485 47.2812 301.693 47.2812H299.227V46.1875H301.653C302.2 46.1875 302.639 46.093 302.971 45.9041C303.302 45.7152 303.543 45.46 303.692 45.1385C303.844 44.8137 303.92 44.4474 303.92 44.0398C303.92 43.6321 303.844 43.2675 303.692 42.946C303.543 42.6245 303.301 42.3726 302.966 42.1903C302.631 42.0047 302.187 41.9119 301.634 41.9119H299.466V51H298.233ZM306.961 51V43.3636H308.094V44.517H308.174C308.313 44.1392 308.565 43.8326 308.929 43.5973C309.294 43.362 309.705 43.2443 310.162 43.2443C310.248 43.2443 310.356 43.246 310.485 43.2493C310.615 43.2526 310.712 43.2576 310.779 43.2642V44.4574C310.739 44.4474 310.648 44.4325 310.505 44.4126C310.366 44.3894 310.219 44.3778 310.063 44.3778C309.692 44.3778 309.36 44.4557 309.069 44.6115C308.78 44.764 308.551 44.9761 308.382 45.2479C308.217 45.5163 308.134 45.8229 308.134 46.1676V51H306.961ZM315.139 51.1591C314.403 51.1591 313.768 50.9967 313.235 50.6719C312.704 50.3438 312.295 49.8864 312.007 49.2997C311.722 48.7098 311.579 48.0237 311.579 47.2415C311.579 46.4593 311.722 45.7699 312.007 45.1733C312.295 44.5734 312.696 44.1061 313.21 43.7713C313.727 43.4332 314.33 43.2642 315.02 43.2642C315.417 43.2642 315.81 43.3305 316.198 43.4631C316.586 43.5956 316.939 43.8111 317.257 44.1094C317.575 44.4044 317.828 44.7955 318.017 45.2827C318.206 45.7699 318.301 46.3698 318.301 47.0824V47.5795L312.414 47.5795V46.5653L317.108 46.5653C317.108 46.1345 317.021 45.75 316.849 45.4119C316.68 45.0739 316.438 44.8071 316.123 44.6115C315.812 44.416 315.444 44.3182 315.02 44.3182C314.552 44.3182 314.148 44.4342 313.806 44.6662C313.468 44.8949 313.208 45.1932 313.026 45.5611C312.844 45.929 312.752 46.3234 312.752 46.7443V47.4205C312.752 47.9972 312.852 48.486 313.051 48.8871C313.253 49.2848 313.533 49.5881 313.891 49.7969C314.249 50.0024 314.665 50.1051 315.139 50.1051C315.447 50.1051 315.725 50.062 315.974 49.9759C316.226 49.8864 316.443 49.7538 316.625 49.5781C316.808 49.3991 316.949 49.1771 317.048 48.9119L318.181 49.2301C318.062 49.6146 317.862 49.9527 317.58 50.2443C317.298 50.5327 316.95 50.758 316.536 50.9205C316.122 51.0795 315.656 51.1591 315.139 51.1591ZM322.969 51.1591C322.333 51.1591 321.771 50.9983 321.284 50.6768C320.797 50.352 320.415 49.8946 320.14 49.3047C319.865 48.7114 319.728 48.0104 319.728 47.2017C319.728 46.3996 319.865 45.7036 320.14 45.1136C320.415 44.5237 320.798 44.0679 321.289 43.7464C321.779 43.425 322.346 43.2642 322.989 43.2642C323.486 43.2642 323.879 43.3471 324.167 43.5128C324.459 43.6752 324.681 43.8608 324.833 44.0696C324.989 44.2751 325.11 44.4441 325.196 44.5767H325.296V40.8182H326.469V51H325.336V49.8267H325.196C325.11 49.9659 324.988 50.1416 324.828 50.3537C324.669 50.5625 324.442 50.7498 324.147 50.9155C323.852 51.0779 323.46 51.1591 322.969 51.1591ZM323.128 50.1051C323.599 50.1051 323.997 49.9825 324.321 49.7372C324.646 49.4886 324.893 49.1456 325.062 48.7081C325.231 48.2673 325.316 47.7585 325.316 47.1818C325.316 46.6117 325.233 46.1129 325.067 45.6854C324.901 45.2545 324.656 44.9197 324.331 44.6811C324.007 44.4392 323.605 44.3182 323.128 44.3182C322.631 44.3182 322.217 44.4458 321.885 44.701C321.557 44.9529 321.31 45.2959 321.145 45.7301C320.982 46.161 320.901 46.6449 320.901 47.1818C320.901 47.7254 320.984 48.2192 321.15 48.6634C321.319 49.1042 321.567 49.4555 321.895 49.7173C322.227 49.9759 322.638 50.1051 323.128 50.1051ZM328.781 51V43.3636H329.954V51H328.781ZM329.377 42.0909C329.149 42.0909 328.952 42.013 328.786 41.8572C328.623 41.7015 328.542 41.5142 328.542 41.2955C328.542 41.0767 328.623 40.8894 328.786 40.7337C328.952 40.5779 329.149 40.5 329.377 40.5C329.606 40.5 329.802 40.5779 329.964 40.7337C330.13 40.8894 330.213 41.0767 330.213 41.2955C330.213 41.5142 330.13 41.7015 329.964 41.8572C329.802 42.013 329.606 42.0909 329.377 42.0909ZM335.205 51.1591C334.49 51.1591 333.873 50.9901 333.356 50.652C332.839 50.3139 332.441 49.8482 332.163 49.255C331.884 48.6617 331.745 47.9839 331.745 47.2216C331.745 46.446 331.888 45.7616 332.173 45.1683C332.461 44.5717 332.862 44.1061 333.376 43.7713C333.893 43.4332 334.496 43.2642 335.186 43.2642C335.722 43.2642 336.206 43.3636 336.637 43.5625C337.068 43.7614 337.421 44.0398 337.696 44.3977C337.971 44.7557 338.142 45.1733 338.208 45.6506H337.035C336.945 45.3026 336.747 44.9943 336.438 44.7259C336.133 44.4541 335.722 44.3182 335.205 44.3182C334.748 44.3182 334.347 44.4375 334.002 44.6761C333.661 44.9115 333.394 45.2446 333.202 45.6754C333.013 46.103 332.919 46.6051 332.919 47.1818C332.919 47.7718 333.011 48.2855 333.197 48.723C333.386 49.1605 333.651 49.5002 333.992 49.7422C334.337 49.9841 334.741 50.1051 335.205 50.1051C335.51 50.1051 335.787 50.0521 336.036 49.946C336.284 49.84 336.495 49.6875 336.667 49.4886C336.839 49.2898 336.962 49.0511 337.035 48.7727H338.208C338.142 49.2235 337.978 49.6295 337.716 49.9908C337.458 50.3487 337.115 50.6338 336.687 50.8459C336.263 51.0547 335.769 51.1591 335.205 51.1591ZM343.244 43.3636V44.358H339.287V43.3636H343.244ZM340.441 41.5341H341.614V48.8125C341.614 49.1439 341.662 49.3925 341.758 49.5582C341.857 49.7206 341.983 49.83 342.136 49.8864C342.292 49.9394 342.456 49.9659 342.628 49.9659C342.757 49.9659 342.863 49.9593 342.946 49.946C343.029 49.9295 343.095 49.9162 343.145 49.9063L343.384 50.9602C343.304 50.9901 343.193 51.0199 343.051 51.0497C342.908 51.0829 342.727 51.0994 342.509 51.0994C342.177 51.0994 341.852 51.0282 341.534 50.8857C341.219 50.7431 340.958 50.526 340.749 50.2344C340.543 49.9427 340.441 49.5748 340.441 49.1307V41.5341ZM345.009 51V43.3636H346.183V51H345.009ZM345.606 42.0909C345.377 42.0909 345.18 42.013 345.014 41.8572C344.852 41.7015 344.771 41.5142 344.771 41.2955C344.771 41.0767 344.852 40.8894 345.014 40.7337C345.18 40.5779 345.377 40.5 345.606 40.5C345.835 40.5 346.03 40.5779 346.193 40.7337C346.358 40.8894 346.441 41.0767 346.441 41.2955C346.441 41.5142 346.358 41.7015 346.193 41.8572C346.03 42.013 345.835 42.0909 345.606 42.0909ZM351.434 51.1591C350.745 51.1591 350.14 50.995 349.619 50.6669C349.102 50.3388 348.698 49.8797 348.406 49.2898C348.118 48.6998 347.974 48.0104 347.974 47.2216C347.974 46.4261 348.118 45.7318 348.406 45.1385C348.698 44.5452 349.102 44.0845 349.619 43.7564C350.14 43.4283 350.745 43.2642 351.434 43.2642C352.123 43.2642 352.727 43.4283 353.244 43.7564C353.764 44.0845 354.168 44.5452 354.457 45.1385C354.748 45.7318 354.894 46.4261 354.894 47.2216C354.894 48.0104 354.748 48.6998 354.457 49.2898C354.168 49.8797 353.764 50.3388 353.244 50.6669C352.727 50.995 352.123 51.1591 351.434 51.1591ZM351.434 50.1051C351.958 50.1051 352.388 49.9709 352.727 49.7024C353.065 49.4339 353.315 49.081 353.477 48.6435C353.64 48.206 353.721 47.732 353.721 47.2216C353.721 46.7112 353.64 46.2356 353.477 45.7947C353.315 45.3539 353.065 44.9976 352.727 44.7259C352.388 44.4541 351.958 44.3182 351.434 44.3182C350.91 44.3182 350.479 44.4541 350.141 44.7259C349.803 44.9976 349.553 45.3539 349.391 45.7947C349.228 46.2356 349.147 46.7112 349.147 47.2216C349.147 47.732 349.228 48.206 349.391 48.6435C349.553 49.081 349.803 49.4339 350.141 49.7024C350.479 49.9709 350.91 50.1051 351.434 50.1051ZM357.858 46.4063V51H356.685V43.3636H357.819V44.5568H357.918C358.097 44.169 358.369 43.8575 358.733 43.6222C359.098 43.3835 359.569 43.2642 360.145 43.2642C360.662 43.2642 361.115 43.3703 361.503 43.5824C361.89 43.7912 362.192 44.1094 362.407 44.5369C362.623 44.9612 362.731 45.4981 362.731 46.1477V51H361.557V46.2273C361.557 45.6274 361.402 45.16 361.09 44.8253C360.778 44.4872 360.351 44.3182 359.807 44.3182C359.433 44.3182 359.098 44.3994 358.803 44.5618C358.511 44.7242 358.281 44.9612 358.112 45.2727C357.943 45.5843 357.858 45.9621 357.858 46.4063Z" fill="#323743"/>
<path d="M298.86 88L304.52 75.28L305.24 76.58H298V73.92H306.98L307.28 75.46L301.92 88H298.86ZM308.986 88L308.326 86.36L312.466 81.78C312.693 81.54 312.933 81.26 313.186 80.94C313.453 80.62 313.706 80.2933 313.946 79.96C314.199 79.6133 314.399 79.28 314.546 78.96C314.693 78.6267 314.766 78.3267 314.766 78.06C314.766 77.7533 314.699 77.4867 314.566 77.26C314.433 77.02 314.239 76.8333 313.986 76.7C313.733 76.5667 313.419 76.5 313.046 76.5C312.699 76.5 312.373 76.5933 312.066 76.78C311.759 76.9533 311.473 77.2133 311.206 77.56C310.939 77.9067 310.706 78.3267 310.506 78.82L308.266 77.56C308.533 76.7867 308.913 76.1133 309.406 75.54C309.899 74.9667 310.486 74.52 311.166 74.2C311.846 73.88 312.573 73.72 313.346 73.72C314.159 73.7333 314.893 73.9067 315.546 74.24C316.199 74.5733 316.713 75.04 317.086 75.64C317.459 76.24 317.646 76.9333 317.646 77.72C317.646 78.0133 317.613 78.3133 317.546 78.62C317.493 78.9267 317.393 79.2467 317.246 79.58C317.113 79.9133 316.933 80.2667 316.706 80.64C316.493 81 316.226 81.3867 315.906 81.8C315.599 82.2 315.246 82.62 314.846 83.06L311.666 86.52L311.266 85.3H318.226V88H308.986ZM320.263 91.86L319.383 90.8C319.903 90.5467 320.316 90.24 320.623 89.88C320.943 89.52 321.103 89.2067 321.103 88.94C321.103 88.82 321.07 88.6933 321.003 88.56C320.936 88.4267 320.79 88.26 320.563 88.06C320.27 87.8333 320.07 87.62 319.963 87.42C319.87 87.2067 319.823 86.98 319.823 86.74C319.823 86.3533 319.963 86.0467 320.243 85.82C320.523 85.5933 320.883 85.48 321.323 85.48C321.683 85.48 322.01 85.5867 322.303 85.8C322.61 86 322.85 86.2867 323.023 86.66C323.196 87.02 323.283 87.44 323.283 87.92C323.283 88.3467 323.21 88.76 323.063 89.16C322.916 89.5733 322.703 89.9533 322.423 90.3C322.156 90.66 321.836 90.9733 321.463 91.24C321.103 91.5067 320.703 91.7133 320.263 91.86ZM330.688 88.2C329.488 88.2 328.461 87.9133 327.608 87.34C326.768 86.7667 326.121 85.9467 325.668 84.88C325.228 83.8 325.008 82.5067 325.008 81C325.008 79.4933 325.228 78.2067 325.668 77.14C326.121 76.06 326.768 75.2333 327.608 74.66C328.461 74.0867 329.488 73.8 330.688 73.8C331.888 73.8 332.915 74.0867 333.768 74.66C334.621 75.2333 335.268 76.06 335.708 77.14C336.161 78.2067 336.388 79.4933 336.388 81C336.388 82.5067 336.161 83.8 335.708 84.88C335.268 85.9467 334.621 86.7667 333.768 87.34C332.915 87.9133 331.888 88.2 330.688 88.2ZM330.688 85.62C331.581 85.62 332.275 85.22 332.768 84.42C333.261 83.62 333.508 82.48 333.508 81C333.508 79.4933 333.261 78.3333 332.768 77.52C332.275 76.7067 331.581 76.3 330.688 76.3C329.781 76.3 329.081 76.7067 328.588 77.52C328.108 78.3333 327.868 79.4933 327.868 81C327.868 82.48 328.108 83.62 328.588 84.42C329.081 85.22 329.781 85.62 330.688 85.62ZM343.754 88.2C342.554 88.2 341.528 87.9133 340.674 87.34C339.834 86.7667 339.188 85.9467 338.734 84.88C338.294 83.8 338.074 82.5067 338.074 81C338.074 79.4933 338.294 78.2067 338.734 77.14C339.188 76.06 339.834 75.2333 340.674 74.66C341.528 74.0867 342.554 73.8 343.754 73.8C344.954 73.8 345.981 74.0867 346.834 74.66C347.688 75.2333 348.334 76.06 348.774 77.14C349.228 78.2067 349.454 79.4933 349.454 81C349.454 82.5067 349.228 83.8 348.774 84.88C348.334 85.9467 347.688 86.7667 346.834 87.34C345.981 87.9133 344.954 88.2 343.754 88.2ZM343.754 85.62C344.648 85.62 345.341 85.22 345.834 84.42C346.328 83.62 346.574 82.48 346.574 81C346.574 79.4933 346.328 78.3333 345.834 77.52C345.341 76.7067 344.648 76.3 343.754 76.3C342.848 76.3 342.148 76.7067 341.654 77.52C341.174 78.3333 340.934 79.4933 340.934 81C340.934 82.48 341.174 83.62 341.654 84.42C342.148 85.22 342.848 85.62 343.754 85.62ZM356.821 88.2C355.621 88.2 354.594 87.9133 353.741 87.34C352.901 86.7667 352.254 85.9467 351.801 84.88C351.361 83.8 351.141 82.5067 351.141 81C351.141 79.4933 351.361 78.2067 351.801 77.14C352.254 76.06 352.901 75.2333 353.741 74.66C354.594 74.0867 355.621 73.8 356.821 73.8C358.021 73.8 359.047 74.0867 359.901 74.66C360.754 75.2333 361.401 76.06 361.841 77.14C362.294 78.2067 362.521 79.4933 362.521 81C362.521 82.5067 362.294 83.8 361.841 84.88C361.401 85.9467 360.754 86.7667 359.901 87.34C359.047 87.9133 358.021 88.2 356.821 88.2ZM356.821 85.62C357.714 85.62 358.407 85.22 358.901 84.42C359.394 83.62 359.641 82.48 359.641 81C359.641 79.4933 359.394 78.3333 358.901 77.52C358.407 76.7067 357.714 76.3 356.821 76.3C355.914 76.3 355.214 76.7067 354.721 77.52C354.241 78.3333 354.001 79.4933 354.001 81C354.001 82.48 354.241 83.62 354.721 84.42C355.214 85.22 355.914 85.62 356.821 85.62Z" fill="#171A1F"/>
<path d="M305 118.715V107.286" stroke="#0E642A" stroke-width="1.37143" stroke-miterlimit="10"/>
<path d="M301 111.286L305 107.286L309 111.286" stroke="#0E642A" stroke-width="1.37143" stroke-miterlimit="10" stroke-linecap="square"/>
<path d="M320.044 118L323.02 110.728H319.246V109.36H324.568V110.728L321.604 118H320.044ZM328.566 118.18C328.126 118.18 327.716 118.09 327.336 117.91C326.956 117.726 326.628 117.474 326.352 117.154C326.08 116.834 325.884 116.462 325.764 116.038L327.156 115.666C327.212 115.898 327.314 116.098 327.462 116.266C327.614 116.434 327.79 116.564 327.99 116.656C328.194 116.748 328.404 116.794 328.62 116.794C328.9 116.794 329.156 116.726 329.388 116.59C329.62 116.454 329.804 116.272 329.94 116.044C330.076 115.812 330.144 115.556 330.144 115.276C330.144 114.996 330.074 114.742 329.934 114.514C329.798 114.282 329.614 114.1 329.382 113.968C329.15 113.832 328.896 113.764 328.62 113.764C328.288 113.764 328.012 113.824 327.792 113.944C327.576 114.064 327.41 114.192 327.294 114.328L326.058 113.932L326.322 109.36H331.014V110.716H327.096L327.636 110.206L327.444 113.386L327.18 113.062C327.404 112.858 327.664 112.706 327.96 112.606C328.256 112.506 328.542 112.456 328.818 112.456C329.358 112.456 329.836 112.58 330.252 112.828C330.672 113.072 331 113.406 331.236 113.83C331.476 114.254 331.596 114.736 331.596 115.276C331.596 115.816 331.456 116.306 331.176 116.746C330.896 117.182 330.526 117.53 330.066 117.79C329.61 118.05 329.11 118.18 328.566 118.18ZM334.235 118L333.275 117.04L340.961 109.36L341.921 110.326L334.235 118ZM340.121 118.18C339.725 118.18 339.363 118.084 339.035 117.892C338.711 117.696 338.451 117.436 338.255 117.112C338.059 116.784 337.961 116.42 337.961 116.02C337.961 115.628 338.061 115.268 338.261 114.94C338.461 114.612 338.725 114.35 339.053 114.154C339.381 113.958 339.737 113.86 340.121 113.86C340.517 113.86 340.879 113.958 341.207 114.154C341.535 114.346 341.795 114.606 341.987 114.934C342.183 115.258 342.281 115.62 342.281 116.02C342.281 116.42 342.183 116.784 341.987 117.112C341.795 117.436 341.535 117.696 341.207 117.892C340.879 118.084 340.517 118.18 340.121 118.18ZM340.121 116.944C340.285 116.944 340.437 116.902 340.577 116.818C340.721 116.734 340.835 116.622 340.919 116.482C341.003 116.342 341.045 116.188 341.045 116.02C341.045 115.852 341.003 115.698 340.919 115.558C340.835 115.418 340.721 115.306 340.577 115.222C340.437 115.138 340.285 115.096 340.121 115.096C339.953 115.096 339.799 115.138 339.659 115.222C339.519 115.306 339.405 115.418 339.317 115.558C339.233 115.698 339.191 115.852 339.191 116.02C339.191 116.188 339.233 116.342 339.317 116.482C339.405 116.622 339.519 116.734 339.659 116.818C339.799 116.902 339.953 116.944 340.121 116.944ZM335.075 113.5C334.679 113.5 334.317 113.404 333.989 113.212C333.661 113.016 333.399 112.756 333.203 112.432C333.011 112.104 332.915 111.74 332.915 111.34C332.915 110.948 333.015 110.588 333.215 110.26C333.415 109.932 333.679 109.67 334.007 109.474C334.335 109.278 334.691 109.18 335.075 109.18C335.471 109.18 335.831 109.278 336.155 109.474C336.483 109.666 336.745 109.926 336.941 110.254C337.137 110.578 337.235 110.94 337.235 111.34C337.235 111.74 337.137 112.104 336.941 112.432C336.745 112.756 336.483 113.016 336.155 113.212C335.831 113.404 335.471 113.5 335.075 113.5ZM335.075 112.264C335.243 112.264 335.397 112.222 335.537 112.138C335.677 112.054 335.789 111.942 335.873 111.802C335.957 111.662 335.999 111.508 335.999 111.34C335.999 111.172 335.957 111.018 335.873 110.878C335.789 110.738 335.677 110.626 335.537 110.542C335.397 110.458 335.243 110.416 335.075 110.416C334.907 110.416 334.753 110.458 334.613 110.542C334.473 110.626 334.361 110.738 334.277 110.878C334.193 111.018 334.151 111.172 334.151 111.34C334.151 111.508 334.193 111.662 334.277 111.802C334.361 111.942 334.473 112.054 334.613 112.138C334.753 112.222 334.907 112.264 335.075 112.264Z" fill="#171A1F"/>
</g>
<defs>
<filter id="filter0_dd_10580_292" x="0" y="76" width="613" height="396" filterUnits="userSpaceOnUse" color-interpolation-filters="sRGB">
<feFlood flood-opacity="0" result="BackgroundImageFix"/>
<feColorMatrix in="SourceAlpha" type="matrix" values="0 0 0 0 0 0 0 0 0 0 0 0 0 0 0 0 0 0 127 0" result="hardAlpha"/>
<feOffset dy="17"/>
<feGaussianBlur stdDeviation="17.5"/>
<feColorMatrix type="matrix" values="0 0 0 0 0.0901961 0 0 0 0 0.101961 0 0 0 0 0.121569 0 0 0 0.24 0"/>
<feBlend mode="normal" in2="BackgroundImageFix" result="effect1_dropShadow_10580_292"/>
<feColorMatrix in="SourceAlpha" type="matrix" values="0 0 0 0 0 0 0 0 0 0 0 0 0 0 0 0 0 0 127 0" result="hardAlpha"/>
<feOffset/>
<feGaussianBlur stdDeviation="1"/>
<feColorMatrix type="matrix" values="0 0 0 0 0.0901961 0 0 0 0 0.101961 0 0 0 0 0.121569 0 0 0 0.12 0"/>
<feBlend mode="normal" in2="effect1_dropShadow_10580_292" result="effect2_dropShadow_10580_292"/>
<feBlend mode="normal" in="SourceGraphic" in2="effect2_dropShadow_10580_292" result="shape"/>
</filter>
<filter id="filter1_dd_10580_292" x="256" y="0" width="378" height="175" filterUnits="userSpaceOnUse" color-interpolation-filters="sRGB">
<feFlood flood-opacity="0" result="BackgroundImageFix"/>
<feColorMatrix in="SourceAlpha" type="matrix" values="0 0 0 0 0 0 0 0 0 0 0 0 0 0 0 0 0 0 127 0" result="hardAlpha"/>
<feOffset dy="8"/>
<feGaussianBlur stdDeviation="8.5"/>
<feColorMatrix type="matrix" values="0 0 0 0 0.0901961 0 0 0 0 0.101961 0 0 0 0 0.121569 0 0 0 0.15 0"/>
<feBlend mode="normal" in2="BackgroundImageFix" result="effect1_dropShadow_10580_292"/>
<feColorMatrix in="SourceAlpha" type="matrix" values="0 0 0 0 0 0 0 0 0 0 0 0 0 0 0 0 0 0 127 0" result="hardAlpha"/>
<feOffset/>
<feGaussianBlur stdDeviation="1"/>
<feColorMatrix type="matrix" values="0 0 0 0 0.0901961 0 0 0 0 0.101961 0 0 0 0 0.121569 0 0 0 0.12 0"/>
<feBlend mode="normal" in2="effect1_dropShadow_10580_292" result="effect2_dropShadow_10580_292"/>
<feBlend mode="normal" in="SourceGraphic" in2="effect2_dropShadow_10580_292" result="shape"/>
</filter>
</defs>
</svg>
