<svg width="24" height="24" viewBox="0 0 24 24" fill="none" xmlns="http://www.w3.org/2000/svg">
<path d="M11.9992 14.5716C13.4193 14.5716 14.5706 13.4203 14.5706 12.0001C14.5706 10.58 13.4193 9.42871 11.9992 9.42871C10.579 9.42871 9.42773 10.58 9.42773 12.0001C9.42773 13.4203 10.579 14.5716 11.9992 14.5716Z" stroke="#424955" stroke-width="2.05714" stroke-miterlimit="10" stroke-linecap="square"/>
<path d="M18.8579 11.9999C18.8569 11.5061 18.8029 11.0138 18.6968 10.5316L21.0231 8.77015L19.3088 5.801L16.6148 6.93757C15.8853 6.26875 15.0194 5.76605 14.0768 5.46415L13.7151 2.57129L10.2865 2.57129L9.9248 5.46415C8.98224 5.76605 8.11635 6.26875 7.3868 6.93757L4.6928 5.801L2.97852 8.77015L5.3048 10.5316C5.09 11.4986 5.09 12.5011 5.3048 13.4681L2.97852 15.2296L4.6928 18.1987L7.3868 17.0621C8.11635 17.731 8.98224 18.2337 9.9248 18.5356L10.2865 21.4284H13.7151L14.0768 18.5356C15.0194 18.2337 15.8853 17.731 16.6148 17.0621L19.3088 18.1987L21.0231 15.2296L18.6968 13.4681C18.8029 12.9859 18.8569 12.4936 18.8579 11.9999Z" stroke="#424955" stroke-width="2.05714" stroke-miterlimit="10" stroke-linecap="square"/>
</svg>
