<svg width="24" height="24" viewBox="0 0 24 24" fill="none" xmlns="http://www.w3.org/2000/svg">
<path d="M9.26655 10.5186H3.89397C3.43932 10.5186 3.00328 10.6992 2.68179 11.0207C2.3603 11.3421 2.17969 11.7782 2.17969 12.2328V17.5951M2.17969 17.5951H20.8774M2.17969 17.5951V22.7997M20.8774 17.5951V12.2328C20.8774 11.7782 20.6968 11.3421 20.3753 11.0207C20.0538 10.6992 19.6178 10.5186 19.1631 10.5186H13.794M20.8774 17.5951V22.7997" stroke="#424955" stroke-width="1.71429" stroke-linecap="round" stroke-linejoin="round"/>
<path d="M8.3473 14.0567H14.7073M16.0102 8.30189L12.1359 12.1796C11.9751 12.3403 11.7572 12.4306 11.5299 12.4306C11.3026 12.4306 11.0846 12.3403 10.9239 12.1796L5.77244 7.02817C5.61175 6.86744 5.52148 6.64946 5.52148 6.42217C5.52148 6.19489 5.61175 5.97691 5.77244 5.81617L9.65016 1.93846C9.8109 1.77777 10.0289 1.6875 10.2562 1.6875C10.4834 1.6875 10.7014 1.77777 10.8622 1.93846L16.0102 7.08989C16.1708 7.25063 16.2611 7.46861 16.2611 7.69589C16.2611 7.92317 16.1708 8.14115 16.0102 8.30189Z" stroke="#424955" stroke-width="1.71429" stroke-linecap="round" stroke-linejoin="round"/>
</svg>
