<svg width="32" height="32" viewBox="0 0 32 32" fill="none" xmlns="http://www.w3.org/2000/svg">
<g clip-path="url(#clip0_9597_4020)">
<path fill-rule="evenodd" clip-rule="evenodd" d="M15.9993 2.66699C8.63535 2.66699 2.66602 8.63633 2.66602 16.0003C2.66602 18.5203 3.36602 20.8803 4.58335 22.891L3.39402 26.9337C3.32573 27.1658 3.32124 27.412 3.38101 27.6464C3.44078 27.8809 3.56261 28.0949 3.73369 28.266C3.90478 28.4371 4.11879 28.5589 4.35324 28.6187C4.58769 28.6784 4.83391 28.6739 5.06602 28.6057L9.10868 27.4163C11.1869 28.6738 13.5703 29.337 15.9993 29.3337C23.3633 29.3337 29.3327 23.3643 29.3327 16.0003C29.3327 8.63633 23.3633 2.66699 15.9993 2.66699ZM12.9833 19.0177C15.6807 21.7137 18.2553 22.0697 19.1647 22.103C20.5473 22.1537 21.894 21.0977 22.418 19.8723C22.4842 19.7199 22.5082 19.5525 22.4875 19.3876C22.4669 19.2227 22.4024 19.0664 22.3007 18.935C21.57 18.0017 20.582 17.331 19.6167 16.6643C19.4151 16.525 19.1675 16.4691 18.9256 16.5083C18.6837 16.5476 18.4664 16.679 18.3193 16.875L17.5193 18.095C17.4773 18.1606 17.4117 18.2076 17.3361 18.2264C17.2605 18.2453 17.1806 18.2345 17.1127 18.1963C16.57 17.8857 15.7793 17.3577 15.2113 16.7897C14.6433 16.2217 14.1473 15.467 13.8687 14.959C13.8341 14.8945 13.8241 14.8196 13.8406 14.7482C13.857 14.6769 13.8987 14.6139 13.958 14.571L15.19 13.6563C15.3658 13.5035 15.4793 13.2913 15.5088 13.0601C15.5383 12.829 15.4818 12.5951 15.35 12.403C14.7527 11.5283 14.0567 10.4163 13.0473 9.67899C12.9171 9.5846 12.7645 9.52574 12.6046 9.5082C12.4447 9.49067 12.283 9.51507 12.1353 9.57899C10.9087 10.1043 9.84735 11.451 9.89802 12.8363C9.93135 13.7457 10.2873 16.3203 12.9833 19.0177Z" fill="#1E8C0E"/>
</g>
<defs>
<clipPath id="clip0_9597_4020">
<rect width="32" height="32" fill="white"/>
</clipPath>
</defs>
</svg>
